<?xml version="1.0" encoding="utf-8"?>
<!-- Generator: Adobe Illustrator 18.0.0, SVG Export Plug-In . SVG Version: 6.00 Build 0)  -->
<!DOCTYPE svg PUBLIC "-//W3C//DTD SVG 1.1//EN" "http://www.w3.org/Graphics/SVG/1.1/DTD/svg11.dtd">
<svg version="1.1" id="Layer_1" xmlns="http://www.w3.org/2000/svg" xmlns:xlink="http://www.w3.org/1999/xlink" x="0px" y="0px"
	 viewBox="0 0 50 50" enable-background="new 0 0 50 50" xml:space="preserve">
<g>
	<g>
		<path fill="#333333" d="M25,49C19.602,49,1,33.088,1,20.969C1,9.958,11.766,1,25,1s24,8.958,24,19.969C49,33.088,30.398,49,25,49z
			 M25,3.954c-11.291,0-20.476,7.633-20.476,17.015c0,11.148,17.572,24.619,20.476,25.073c2.905-0.454,20.476-13.925,20.476-25.073
			C45.476,11.587,36.291,3.954,25,3.954z M25,33.173c-7.638,0-13.853-5.21-13.853-11.613S17.362,9.948,25,9.948
			s13.853,5.209,13.853,11.612S32.638,33.173,25,33.173z M25,12.902c-5.695,0-10.329,3.884-10.329,8.658
			c0,4.775,4.634,8.659,10.329,8.659s10.329-3.884,10.329-8.659C35.329,16.786,30.695,12.902,25,12.902z"/>
	</g>
</g>
</svg>
