<?xml version="1.0" encoding="utf-8"?>
<!-- Generator: Adobe Illustrator 18.0.0, SVG Export Plug-In . SVG Version: 6.00 Build 0)  -->
<!DOCTYPE svg PUBLIC "-//W3C//DTD SVG 1.1//EN" "http://www.w3.org/Graphics/SVG/1.1/DTD/svg11.dtd">
<svg version="1.1" id="Layer_1" xmlns="http://www.w3.org/2000/svg" xmlns:xlink="http://www.w3.org/1999/xlink" x="0px" y="0px"
	 viewBox="0 0 50 50" enable-background="new 0 0 50 50" xml:space="preserve">
<g>
	<path fill="#2EB88A" d="M39.17,4.456h-1.988C36.894,3.057,35.647,2,34.156,2H15.844c-1.49,0-2.737,1.057-3.024,2.456h-1.988
		c-3.137,0-5.688,2.539-5.688,5.66V42.34c0,3.121,2.552,5.66,5.688,5.66H39.17c3.136,0,5.687-2.539,5.687-5.66V10.116
		C44.857,6.995,42.305,4.456,39.17,4.456z M15.601,5.072c0-0.134,0.109-0.243,0.243-0.243h18.313c0.135,0,0.244,0.109,0.244,0.243
		v2.213v5.044c0,0.134-0.109,0.242-0.244,0.242H15.844c-0.133,0-0.243-0.109-0.243-0.242V7.286V5.072z M42.013,42.34
		c0,1.561-1.274,2.83-2.843,2.83H10.832c-1.568,0-2.844-1.27-2.844-2.83V10.116c0-1.561,1.276-2.83,2.844-2.83h1.925v5.044
		c0,1.694,1.385,3.072,3.087,3.072h18.313c1.703,0,3.088-1.378,3.088-3.072V7.286h1.925c1.568,0,2.843,1.27,2.843,2.83V42.34z"/>
	<path fill="#2EB88A" d="M35.822,20.714H14.179c-0.785,0-1.422,0.633-1.422,1.415c0,0.782,0.637,1.415,1.422,1.415h21.643
		c0.785,0,1.422-0.633,1.422-1.415C37.244,21.347,36.608,20.714,35.822,20.714z"/>
	<path fill="#2EB88A" d="M35.822,28.969H14.179c-0.785,0-1.422,0.633-1.422,1.415c0,0.782,0.637,1.415,1.422,1.415h21.643
		c0.785,0,1.422-0.633,1.422-1.415C37.244,29.602,36.608,28.969,35.822,28.969z"/>
	<path fill="#2EB88A" d="M35.822,37.224H14.179c-0.785,0-1.422,0.633-1.422,1.415s0.637,1.415,1.422,1.415h21.643
		c0.785,0,1.422-0.633,1.422-1.415S36.608,37.224,35.822,37.224z"/>
</g>
</svg>
