<?xml version="1.0" encoding="utf-8"?>
<!-- Generator: Adobe Illustrator 18.0.0, SVG Export Plug-In . SVG Version: 6.00 Build 0)  -->
<!DOCTYPE svg PUBLIC "-//W3C//DTD SVG 1.1//EN" "http://www.w3.org/Graphics/SVG/1.1/DTD/svg11.dtd">
<svg version="1.1" id="Layer_1" xmlns="http://www.w3.org/2000/svg" xmlns:xlink="http://www.w3.org/1999/xlink" x="0px" y="0px"
	 viewBox="0 0 50 50" enable-background="new 0 0 50 50" xml:space="preserve">
<g>
	<g>
		<g>
			<path fill="#BDBBBB" d="M20.168,18.389c0.862-1.149,2.533-1.958,4.49-1.958c3.393,0,5.561,2.062,5.561,4.725
				c0,2.375-1.645,4.359-4.83,5.064l-0.261,2.767h-1.436l-0.469-4.229c3.183-0.522,4.567-1.932,4.567-3.55
				c0-1.592-1.201-2.767-3.21-2.767c-1.227,0-2.142,0.365-2.637,1.044c-0.027,0.026-0.052,0.052-0.052,0.078
				c0.418,0.131,0.679,0.626,0.679,1.096c0,0.809-0.522,1.436-1.357,1.436c-0.888,0-1.723-0.731-1.723-1.827
				C19.489,19.59,19.724,18.964,20.168,18.389z M22.752,32.433c0-0.94,0.758-1.723,1.671-1.723c0.94,0,1.697,0.783,1.697,1.723
				c0,0.94-0.758,1.697-1.697,1.697C23.509,34.13,22.752,33.373,22.752,32.433z"/>
		</g>
	</g>
	<g>
		<path fill="#BDBBBB" d="M25,48C12.317,48,2,37.683,2,25S12.317,2,25,2s23,10.317,23,23S37.683,48,25,48z M25,4.486
			C13.689,4.486,4.486,13.689,4.486,25S13.689,45.514,25,45.514S45.514,36.311,45.514,25S36.311,4.486,25,4.486z"/>
	</g>
</g>
</svg>
