<?xml version="1.0" encoding="utf-8"?>
<!-- Generator: Adobe Illustrator 18.0.0, SVG Export Plug-In . SVG Version: 6.00 Build 0)  -->
<!DOCTYPE svg PUBLIC "-//W3C//DTD SVG 1.1//EN" "http://www.w3.org/Graphics/SVG/1.1/DTD/svg11.dtd">
<svg version="1.1" id="Layer_1" xmlns="http://www.w3.org/2000/svg" xmlns:xlink="http://www.w3.org/1999/xlink" x="0px" y="0px"
	 viewBox="0 0 50 50" enable-background="new 0 0 50 50" xml:space="preserve">
<g>
	<g>
		<g>
			<path fill="#BDBBBB" d="M160.168,363.389c0.862-1.149,2.533-1.958,4.49-1.958c3.393,0,5.561,2.062,5.561,4.725
				c0,2.375-1.645,4.359-4.83,5.064l-0.261,2.767h-1.436l-0.469-4.229c3.183-0.522,4.567-1.932,4.567-3.55
				c0-1.592-1.201-2.767-3.21-2.767c-1.227,0-2.142,0.365-2.637,1.044c-0.027,0.026-0.052,0.052-0.052,0.078
				c0.418,0.13,0.679,0.626,0.679,1.096c0,0.809-0.522,1.436-1.357,1.436c-0.888,0-1.723-0.731-1.723-1.827
				C159.489,364.59,159.724,363.964,160.168,363.389z M162.752,377.433c0-0.94,0.758-1.723,1.671-1.723
				c0.94,0,1.697,0.783,1.697,1.723s-0.758,1.697-1.697,1.697C163.509,379.13,162.752,378.373,162.752,377.433z"/>
		</g>
	</g>
	<g>
		<path fill="#BDBBBB" d="M165,393c-12.683,0-23-10.317-23-23s10.317-23,23-23s23,10.317,23,23S177.683,393,165,393z M165,349.486
			c-11.311,0-20.514,9.202-20.514,20.514s9.203,20.514,20.514,20.514s20.514-9.202,20.514-20.514S176.311,349.486,165,349.486z"/>
	</g>
</g>
<g>
	<path fill="#333333" d="M39.17,415.956h-1.988c-0.288-1.4-1.534-2.456-3.025-2.456H15.844c-1.49,0-2.737,1.057-3.024,2.456h-1.988
		c-3.137,0-5.688,2.539-5.688,5.66v32.224c0,3.121,2.552,5.66,5.688,5.66H39.17c3.136,0,5.687-2.539,5.687-5.66v-32.224
		C44.857,418.495,42.305,415.956,39.17,415.956z M15.601,416.572c0-0.133,0.109-0.243,0.243-0.243h18.313
		c0.135,0,0.244,0.109,0.244,0.243v2.213v5.044c0,0.133-0.109,0.242-0.244,0.242H15.844c-0.133,0-0.243-0.109-0.243-0.242v-5.044
		V416.572z M42.013,453.84c0,1.561-1.274,2.83-2.843,2.83H10.832c-1.568,0-2.844-1.27-2.844-2.83v-32.224
		c0-1.561,1.276-2.83,2.844-2.83h1.925v5.044c0,1.694,1.385,3.072,3.087,3.072h18.313c1.703,0,3.088-1.378,3.088-3.072v-5.044h1.925
		c1.568,0,2.843,1.27,2.843,2.83V453.84z"/>
	<path fill="#333333" d="M35.822,432.214H14.179c-0.785,0-1.422,0.633-1.422,1.415c0,0.782,0.637,1.415,1.422,1.415h21.643
		c0.785,0,1.422-0.633,1.422-1.415C37.244,432.847,36.608,432.214,35.822,432.214z"/>
	<path fill="#333333" d="M35.822,440.469H14.179c-0.785,0-1.422,0.633-1.422,1.415c0,0.782,0.637,1.415,1.422,1.415h21.643
		c0.785,0,1.422-0.633,1.422-1.415C37.244,441.102,36.608,440.469,35.822,440.469z"/>
	<path fill="#333333" d="M35.822,448.724H14.179c-0.785,0-1.422,0.633-1.422,1.415s0.637,1.415,1.422,1.415h21.643
		c0.785,0,1.422-0.633,1.422-1.415S36.608,448.724,35.822,448.724z"/>
</g>
<path fill="#333333" d="M-20.551,46.277c-1.688-6.657-8.229-8.156-11.764-8.967c-0.631-0.144-1.344-0.309-1.592-0.422
	c-2.019-0.927-3.328-2.283-3.895-4.033c2.174-2.138,4.026-5.314,5.094-8.74c1.213-1.709,1.881-3.503,1.881-5.054
	c0-1.043-0.292-1.945-0.868-2.682c-0.462-8.113-6.198-14.542-13.082-14.647L-44.9,1.731c-6.682,0.037-12.4,6.267-13.044,14.195
	c-0.837,0.791-1.279,1.873-1.279,3.135c0,1.816,0.925,3.969,2.539,5.911c1.039,2.949,2.632,5.63,4.495,7.565
	c-0.562,1.767-1.876,3.135-3.908,4.066c-0.257,0.118-0.971,0.297-1.544,0.441c-3.534,0.889-10.112,2.542-11.808,9.232
	c-0.214,0.84,0.269,1.712,1.082,1.945c0.777,0.199,1.627-0.329,1.831-1.126c1.234-4.867,6.491-6.19,9.631-6.98
	c0.818-0.205,1.523-0.383,2.018-0.609c4.113-1.886,5.457-4.951,5.86-7.189c0.101-0.551-0.087-1.123-0.491-1.493
	c-1.854-1.691-3.425-4.249-4.425-7.202c-0.066-0.202-0.173-0.39-0.308-0.542c-1.225-1.41-1.957-2.912-1.957-4.018
	c0-0.472,0.127-0.711,0.503-0.948c0.434-0.277,0.706-0.759,0.728-1.289c0.268-6.655,4.707-11.896,10.096-11.932l0.169,0.009
	c5.463,0.082,9.867,5.435,10.029,12.185c0.011,0.45,0.204,0.876,0.531,1.169c0.224,0.198,0.311,0.423,0.311,0.805
	c0,0.911-0.513,2.126-1.408,3.331c-0.115,0.154-0.2,0.324-0.253,0.506c-1.015,3.39-2.816,6.371-4.944,8.179
	c-0.429,0.369-0.631,0.952-0.528,1.523c0.404,2.238,1.747,5.302,5.859,7.191c0.524,0.24,1.253,0.407,2.177,0.619
	c3.089,0.707,8.259,1.89,9.475,6.688c0.178,0.69,0.776,1.171,1.456,1.171c0.131,0,0.259-0.018,0.395-0.054
	C-20.813,47.986-20.337,47.116-20.551,46.277z"/>
<g>
	<g>
		<g>
			<path fill="#333333" d="M48.304,276.379c-0.339-1.103-1.125-2.006-2.159-2.489c-0.522-0.244-1.098-0.39-1.711-0.39H28.861
				c-1.548,0-3.373,0.775-4.419,1.865L2.63,297.362c-1.529,1.593-1.504,4.161,0.059,5.726l16.237,16.215
				c0.772,0.771,1.801,1.196,2.901,1.196c1.065,0,2.077-0.406,2.868-1.164l10.568-10.472l2.334-2.313l9.005-8.923
				c1.117-1.068,1.898-2.894,1.898-4.44v-15.628C48.5,277.147,48.419,276.755,48.304,276.379z M45.429,279.278v13.915
				c0,0.641-0.421,1.627-0.894,2.079l-9.152,9.068l-2.334,2.313l-10.445,10.349c-0.148,0.142-0.354,0.212-0.56,0.212
				c-0.041,0-0.078-0.016-0.118-0.022c-0.033,0.004-0.065,0.017-0.098,0.017c-0.212,0-0.425-0.075-0.575-0.225L5.015,300.767
				c-0.304-0.304-0.309-0.823-0.02-1.124l21.792-21.976c0.446-0.462,1.435-0.884,2.075-0.884h14.416h1.157l0.021,0.004h0.196
				c0.429,0,0.779,0.349,0.779,0.778V279.278z"/>
			<path fill="#333333" d="M42.256,282.461c-0.184-1.186-1.035-2.142-2.161-2.487c-0.289-0.089-0.588-0.15-0.906-0.15
				c-1.717,0-3.114,1.395-3.114,3.11c0,0.327,0.065,0.637,0.159,0.934c0.356,1.12,1.322,1.96,2.513,2.131
				c0.146,0.021,0.291,0.045,0.442,0.045c1.717,0,3.115-1.395,3.115-3.11C42.304,282.773,42.28,282.617,42.256,282.461z
				 M37.632,282.935c0-0.212,0.044-0.414,0.121-0.598c0.156-0.372,0.452-0.67,0.822-0.829c0.189-0.081,0.396-0.128,0.614-0.128
				c0.859,0,1.558,0.698,1.558,1.555c0,0.857-0.698,1.555-1.558,1.555C38.33,284.49,37.632,283.792,37.632,282.935z"/>
		</g>
	</g>
</g>
<g>
	<path fill="#FEBF4F" stroke="#FEBF4F" stroke-width="0.6562" stroke-miterlimit="10" d="M83.338,101.23
		c-0.993,0-1.801,0.812-1.801,1.808v3.011c-2.548-3.104-3.935-6.965-3.935-11.039c0-4.646,1.803-9.015,5.076-12.301
		c3.222-3.236,7.7-5.092,12.284-5.092c2.062,0,4.085,0.364,6.009,1.081c0.903,0.34,1.984-0.158,2.318-1.064
		c0.167-0.454,0.149-0.946-0.052-1.386c-0.201-0.439-0.561-0.773-1.009-0.939C99.898,74.441,97.454,74,94.962,74
		c-5.532,0-10.938,2.243-14.832,6.152C76.178,84.12,74,89.397,74,95.01c0,5.067,1.789,9.851,5.043,13.655h-3.111
		c-0.993,0-1.801,0.811-1.801,1.808c0,0.997,0.808,1.809,1.801,1.809h7.229c0.051,0.004,0.096,0.029,0.147,0.029
		c0.094,0,0.178-0.039,0.269-0.053c0.078-0.011,0.153-0.025,0.227-0.046c0.099-0.029,0.195-0.056,0.288-0.103
		c0.167-0.078,0.318-0.181,0.452-0.304c0.012-0.011,0.027-0.014,0.038-0.026c0.004-0.004,0.005-0.009,0.009-0.013
		c0.336-0.329,0.546-0.786,0.546-1.294v-7.434C85.138,102.042,84.33,101.23,83.338,101.23z"/>
	<path fill="#FEBF4F" stroke="#FEBF4F" stroke-width="0.6562" stroke-miterlimit="10" d="M110.935,81.304h3.259
		c0.994,0,1.801-0.812,1.801-1.809c0-0.997-0.808-1.808-1.801-1.808h-7.406c-0.993,0-1.801,0.811-1.801,1.808v7.435
		c0,0.997,0.808,1.809,1.801,1.809c0.994,0,1.801-0.811,1.801-1.809v-2.817c2.464,3.076,3.81,6.868,3.81,10.872
		c0,4.647-1.804,9.016-5.078,12.301c-3.273,3.287-7.63,5.098-12.266,5.098c-2.155,0-4.268-0.398-6.272-1.18
		c-0.899-0.357-1.991,0.127-2.338,1.028c-0.36,0.93,0.102,1.979,1.026,2.339c2.429,0.948,4.98,1.429,7.583,1.429
		c5.598,0,10.86-2.187,14.814-6.157c3.954-3.969,6.131-9.245,6.131-14.859C116,89.906,114.203,85.112,110.935,81.304z"/>
</g>
<path fill="#ED2224" d="M44.975,76.99c0.091-0.437-0.073-0.886-0.466-1.252c-0.831-0.771-2.489-0.849-3.409-0.135
	c-1.987,1.544-4.242,3.295-7.173,3.295c-1.995-0.01-3.998-0.869-5.936-1.699c-0.725-0.311-1.439-0.616-2.143-0.878
	c-1.87-0.698-3.59-1.105-5.257-1.246c-1.877-0.159-3.914-0.069-6.363,0.29c-4.079,0.597-7.146,1.945-8.871,3.901
	c-0.441,0.502-0.469,1.087-0.115,1.574v14.887c-0.328,0.467-0.32,0.987,0,1.428v16.229c0,0.906,0.997,1.616,2.271,1.616
	c1.273,0,2.27-0.71,2.27-1.616V96.767c1.71-1.359,4.659-1.832,6.78-2.07c1.855-0.209,3.593-0.142,5.109,0.195
	c1.3,0.289,2.523,0.796,3.818,1.333l0.294,0.121c2.418,0.999,5.16,2.131,8.332,2.131c0.386,0,0.778-0.016,1.172-0.053
	c4.107-0.374,7.11-2.706,9.1-4.251c0.479-0.374,0.686-0.854,0.585-1.337V76.99z M9.784,92.767V80.453
	c1.709-1.36,4.658-1.832,6.78-2.071c1.855-0.209,3.593-0.142,5.109,0.195c1.3,0.289,2.523,0.796,3.818,1.332l0.294,0.122
	c2.713,1.121,5.869,2.407,9.505,2.078c2-0.182,3.706-0.816,5.144-1.577v11.898c-1.974,1.499-3.982,2.781-6.508,2.781
	c-1.995-0.01-3.999-0.869-5.937-1.7c-0.725-0.31-1.437-0.615-2.141-0.877c-1.871-0.697-3.59-1.105-5.257-1.245
	c-0.592-0.05-1.211-0.076-1.838-0.076c-1.366,0-2.846,0.12-4.525,0.365C12.569,91.923,11.084,92.287,9.784,92.767z"/>
<g>
	<g>
		<path fill="#989898" d="M-27.932,114.344c-3.234-0.628-6.739-1.033-9.643-2.322c-1.858-0.825-3.724-2.01-5.855-2.412
			c-2.412-0.454-4.816,0.352-6.65,1.428c-1.503,0.882-2.923,1.838-4.473,2.675c-1.728,0.934-4.414,0.539-6.392,0.55
			c-0.808,0.004-1.438,0.209-1.911,0.52h1.699v1.431h33.193v-1.431h1.214C-27.061,114.591-27.452,114.438-27.932,114.344z"/>
	</g>
	<g>
		<g>
			<g>
				<path fill="#333333" d="M-28.854,118.135H-60.95c-1.202,0-2.179-0.862-2.179-1.921v-5.676c0-7.414,5.716-12.664,9.976-15.546
					c-4.203-2.878-9.829-8.115-9.829-15.531v-5.677c0-1.059,0.977-1.92,2.179-1.92h31.948c1.202,0,2.179,0.861,2.179,1.92v5.677
					c0,7.414-5.713,12.662-9.974,15.543c4.259,2.903,9.974,8.178,9.974,15.579v5.63C-26.675,117.273-27.652,118.135-28.854,118.135z
					 M-60.554,115.865h31.303v-5.281c0-7.25-6.464-12.291-10.316-14.651l-1.529-0.937l1.533-0.93
					c4.705-2.855,10.312-7.706,10.312-14.605v-5.327h-31.156v5.327c0,7.277,6.372,12.273,10.17,14.604l1.525,0.937l-1.53,0.929
					c-4.705,2.857-10.312,7.71-10.312,14.607V115.865z"/>
			</g>
		</g>
		<g>
			<path fill="#333333" d="M-22.412,75h-45.176C-68.369,75-69,74.104-69,73c0-1.104,0.631-2,1.412-2h45.176
				c0.78,0,1.412,0.895,1.412,2C-21,74.104-21.631,75-22.412,75z"/>
		</g>
		<g>
			<path fill="#333333" d="M-22.412,119h-45.176c-0.78,0-1.412-0.895-1.412-2c0-1.104,0.631-2,1.412-2h45.176
				c0.78,0,1.412,0.895,1.412,2C-21,118.105-21.631,119-22.412,119z"/>
		</g>
	</g>
</g>
<g>
	<g>
		<path fill="#333333" d="M95,49c-5.398,0-24-15.912-24-28.031C71,9.958,81.766,1,95,1s24,8.958,24,19.969
			C119,33.088,100.398,49,95,49z M95,3.954c-11.291,0-20.476,7.633-20.476,17.015c0,11.148,17.572,24.619,20.476,25.073
			c2.905-0.454,20.476-13.925,20.476-25.073C115.476,11.587,106.291,3.954,95,3.954z M95,33.173c-7.638,0-13.853-5.21-13.853-11.613
			S87.362,9.948,95,9.948s13.853,5.209,13.853,11.612S102.638,33.173,95,33.173z M95,12.902c-5.695,0-10.329,3.884-10.329,8.658
			c0,4.775,4.634,8.659,10.329,8.659s10.329-3.884,10.329-8.659C105.329,16.786,100.695,12.902,95,12.902z"/>
	</g>
</g>
<path fill="#2EB88A" d="M43.957,146.16c-1.124-0.912-2.701-0.629-3.515,0.632l-19.443,30.08L9.501,160.428
	c-0.858-1.227-2.443-1.441-3.535-0.483c-1.096,0.959-1.288,2.731-0.432,3.956l13.56,19.392c0.017,0.025,0.04,0.041,0.058,0.065
	c0.075,0.101,0.16,0.192,0.249,0.282c0.052,0.053,0.102,0.109,0.157,0.156c0.016,0.013,0.027,0.03,0.044,0.043
	c0.12,0.097,0.245,0.178,0.373,0.248c0.025,0.014,0.051,0.022,0.077,0.035c0.133,0.067,0.269,0.119,0.408,0.158
	c0.041,0.011,0.08,0.022,0.121,0.031c0.164,0.037,0.329,0.062,0.495,0.062c0.001,0,0.001,0,0.002,0s0.002,0,0.002,0
	c0.173,0,0.346-0.027,0.517-0.067c0.043-0.01,0.085-0.023,0.128-0.036c0.139-0.041,0.276-0.096,0.409-0.165
	c0.032-0.016,0.065-0.029,0.096-0.046c0.139-0.08,0.274-0.172,0.401-0.284c0.013-0.011,0.022-0.025,0.034-0.037
	c0.046-0.042,0.086-0.093,0.129-0.139c0.099-0.104,0.192-0.212,0.273-0.33c0.016-0.023,0.037-0.039,0.052-0.063l21.404-33.114
	C45.337,148.834,45.085,147.072,43.957,146.16z"/>
<g>
	<path fill="#2EB88A" d="M109.17,415.956h-1.988c-0.288-1.4-1.534-2.456-3.025-2.456H85.844c-1.49,0-2.737,1.057-3.024,2.456h-1.988
		c-3.137,0-5.688,2.539-5.688,5.66v32.224c0,3.121,2.552,5.66,5.688,5.66h28.338c3.136,0,5.687-2.539,5.687-5.66v-32.224
		C114.857,418.495,112.305,415.956,109.17,415.956z M85.601,416.572c0-0.133,0.109-0.243,0.243-0.243h18.313
		c0.135,0,0.244,0.109,0.244,0.243v2.213v5.044c0,0.133-0.109,0.242-0.244,0.242H85.844c-0.133,0-0.243-0.109-0.243-0.242v-5.044
		V416.572z M112.013,453.84c0,1.561-1.274,2.83-2.843,2.83H80.832c-1.568,0-2.844-1.27-2.844-2.83v-32.224
		c0-1.561,1.276-2.83,2.844-2.83h1.925v5.044c0,1.694,1.385,3.072,3.087,3.072h18.313c1.703,0,3.088-1.378,3.088-3.072v-5.044h1.925
		c1.568,0,2.843,1.27,2.843,2.83V453.84z"/>
	<path fill="#2EB88A" d="M105.822,432.214H84.179c-0.785,0-1.422,0.633-1.422,1.415c0,0.782,0.637,1.415,1.422,1.415h21.643
		c0.785,0,1.422-0.633,1.422-1.415C107.244,432.847,106.608,432.214,105.822,432.214z"/>
	<path fill="#2EB88A" d="M105.822,440.469H84.179c-0.785,0-1.422,0.633-1.422,1.415c0,0.782,0.637,1.415,1.422,1.415h21.643
		c0.785,0,1.422-0.633,1.422-1.415C107.244,441.102,106.608,440.469,105.822,440.469z"/>
	<path fill="#2EB88A" d="M105.822,448.724H84.179c-0.785,0-1.422,0.633-1.422,1.415s0.637,1.415,1.422,1.415h21.643
		c0.785,0,1.422-0.633,1.422-1.415S106.608,448.724,105.822,448.724z"/>
</g>
<g>
	<path fill="#BDBBBB" d="M179.17,415.956h-1.988c-0.288-1.4-1.534-2.456-3.025-2.456h-18.313c-1.49,0-2.737,1.057-3.024,2.456
		h-1.988c-3.137,0-5.688,2.539-5.688,5.66v32.224c0,3.121,2.552,5.66,5.688,5.66h28.338c3.136,0,5.687-2.539,5.687-5.66v-32.224
		C184.857,418.495,182.305,415.956,179.17,415.956z M155.601,416.572c0-0.133,0.109-0.243,0.243-0.243h18.313
		c0.135,0,0.244,0.109,0.244,0.243v2.213v5.044c0,0.133-0.109,0.242-0.244,0.242h-18.313c-0.133,0-0.243-0.109-0.243-0.242v-5.044
		V416.572z M182.013,453.84c0,1.561-1.275,2.83-2.843,2.83h-28.338c-1.568,0-2.844-1.27-2.844-2.83v-32.224
		c0-1.561,1.276-2.83,2.844-2.83h1.925v5.044c0,1.694,1.385,3.072,3.087,3.072h18.313c1.703,0,3.088-1.378,3.088-3.072v-5.044h1.925
		c1.568,0,2.843,1.27,2.843,2.83V453.84z"/>
	<path fill="#BDBBBB" d="M175.822,432.214h-21.643c-0.785,0-1.422,0.633-1.422,1.415c0,0.782,0.637,1.415,1.422,1.415h21.643
		c0.785,0,1.422-0.633,1.422-1.415C177.244,432.847,176.608,432.214,175.822,432.214z"/>
	<path fill="#BDBBBB" d="M175.822,440.469h-21.643c-0.785,0-1.422,0.633-1.422,1.415c0,0.782,0.637,1.415,1.422,1.415h21.643
		c0.785,0,1.422-0.633,1.422-1.415C177.244,441.102,176.608,440.469,175.822,440.469z"/>
	<path fill="#BDBBBB" d="M175.822,448.724h-21.643c-0.785,0-1.422,0.633-1.422,1.415s0.637,1.415,1.422,1.415h21.643
		c0.785,0,1.422-0.633,1.422-1.415S176.608,448.724,175.822,448.724z"/>
</g>
<g>
	<g>
		<g>
			<path fill="#333333" d="M20.168,363.389c0.862-1.149,2.533-1.958,4.49-1.958c3.393,0,5.561,2.062,5.561,4.725
				c0,2.375-1.645,4.359-4.83,5.064l-0.261,2.767h-1.436l-0.469-4.229c3.183-0.522,4.567-1.932,4.567-3.55
				c0-1.592-1.201-2.767-3.21-2.767c-1.227,0-2.142,0.365-2.637,1.044c-0.027,0.026-0.052,0.052-0.052,0.078
				c0.418,0.131,0.679,0.626,0.679,1.096c0,0.809-0.522,1.436-1.357,1.436c-0.888,0-1.723-0.731-1.723-1.827
				C19.489,364.59,19.724,363.964,20.168,363.389z M22.752,377.433c0-0.94,0.758-1.723,1.671-1.723c0.94,0,1.697,0.783,1.697,1.723
				c0,0.94-0.758,1.697-1.697,1.697C23.509,379.13,22.752,378.373,22.752,377.433z"/>
		</g>
	</g>
	<g>
		<path fill="#333333" d="M25,393c-12.683,0-23-10.317-23-23c0-12.683,10.317-23,23-23s23,10.317,23,23
			C48,382.683,37.683,393,25,393z M25,349.486c-11.311,0-20.514,9.202-20.514,20.514c0,11.311,9.203,20.514,20.514,20.514
			S45.514,381.311,45.514,370C45.514,358.689,36.311,349.486,25,349.486z"/>
	</g>
</g>
<g>
	<g>
		<g>
			<path fill="#2EB88A" d="M90.168,363.389c0.862-1.149,2.533-1.958,4.49-1.958c3.393,0,5.561,2.062,5.561,4.725
				c0,2.375-1.645,4.359-4.83,5.064l-0.261,2.767h-1.436l-0.469-4.229c3.183-0.522,4.567-1.932,4.567-3.55
				c0-1.592-1.201-2.767-3.21-2.767c-1.227,0-2.142,0.365-2.637,1.044c-0.027,0.026-0.052,0.052-0.052,0.078
				c0.418,0.13,0.679,0.626,0.679,1.096c0,0.809-0.522,1.436-1.357,1.436c-0.888,0-1.723-0.731-1.723-1.827
				C89.489,364.59,89.724,363.964,90.168,363.389z M92.752,377.433c0-0.94,0.758-1.723,1.671-1.723c0.94,0,1.697,0.783,1.697,1.723
				s-0.758,1.697-1.697,1.697C93.509,379.13,92.752,378.373,92.752,377.433z"/>
		</g>
	</g>
	<g>
		<path fill="#2EB88A" d="M95,393c-12.683,0-23-10.317-23-23s10.317-23,23-23s23,10.317,23,23S107.683,393,95,393z M95,349.486
			c-11.311,0-20.514,9.202-20.514,20.514S83.689,390.514,95,390.514s20.514-9.202,20.514-20.514S106.311,349.486,95,349.486z"/>
	</g>
</g>
<g>
	<g>
		<path fill="#2EB88A" d="M118.304,276.379c-0.339-1.103-1.125-2.006-2.159-2.489c-0.522-0.244-1.098-0.39-1.711-0.39H98.861
			c-1.548,0-3.373,0.775-4.419,1.865L72.63,297.362c-1.529,1.593-1.504,4.161,0.059,5.726l16.237,16.215
			c0.772,0.771,1.801,1.196,2.901,1.196c1.065,0,2.077-0.406,2.868-1.164l10.568-10.472l2.334-2.313l9.005-8.923
			c1.117-1.068,1.898-2.894,1.898-4.44v-15.628C118.5,277.147,118.419,276.755,118.304,276.379z M115.429,279.278v13.915
			c0,0.641-0.421,1.627-0.894,2.079l-9.152,9.068l-2.334,2.313l-10.445,10.349c-0.148,0.142-0.354,0.212-0.56,0.212
			c-0.041,0-0.078-0.016-0.118-0.022c-0.033,0.004-0.065,0.017-0.098,0.017c-0.212,0-0.425-0.075-0.575-0.225l-16.239-16.216
			c-0.304-0.304-0.309-0.823-0.02-1.124l21.792-21.976c0.446-0.462,1.435-0.884,2.075-0.884h14.416h1.157l0.021,0.004h0.196
			c0.429,0,0.779,0.349,0.779,0.778V279.278z"/>
		<path fill="#2EB88A" d="M112.256,282.461c-0.184-1.186-1.035-2.142-2.161-2.487c-0.289-0.089-0.588-0.15-0.906-0.15
			c-1.717,0-3.114,1.395-3.114,3.11c0,0.327,0.065,0.637,0.159,0.934c0.356,1.12,1.322,1.96,2.513,2.131
			c0.146,0.021,0.291,0.045,0.442,0.045c1.717,0,3.115-1.395,3.115-3.11C112.304,282.773,112.28,282.617,112.256,282.461z
			 M107.632,282.935c0-0.212,0.044-0.414,0.121-0.598c0.156-0.372,0.452-0.67,0.822-0.829c0.189-0.081,0.396-0.128,0.614-0.128
			c0.859,0,1.558,0.698,1.558,1.555c0,0.857-0.698,1.555-1.558,1.555C108.33,284.49,107.632,283.792,107.632,282.935z"/>
	</g>
</g>
<g>
	<g>
		<path fill="#BDBBBB" d="M188.304,276.379c-0.339-1.103-1.125-2.006-2.159-2.489c-0.522-0.244-1.098-0.39-1.711-0.39h-15.573
			c-1.548,0-3.373,0.775-4.419,1.865l-21.812,21.997c-1.529,1.593-1.504,4.161,0.059,5.726l16.237,16.215
			c0.772,0.771,1.801,1.196,2.901,1.196c1.065,0,2.077-0.406,2.868-1.164l10.568-10.472l2.334-2.313l9.005-8.923
			c1.117-1.068,1.898-2.894,1.898-4.44v-15.628C188.5,277.147,188.419,276.755,188.304,276.379z M185.429,279.278v13.915
			c0,0.641-0.421,1.627-0.894,2.079l-9.152,9.068l-2.334,2.313l-10.445,10.349c-0.148,0.142-0.354,0.212-0.56,0.212
			c-0.041,0-0.078-0.016-0.118-0.022c-0.033,0.004-0.065,0.017-0.098,0.017c-0.212,0-0.425-0.075-0.575-0.225l-16.239-16.216
			c-0.304-0.304-0.309-0.823-0.02-1.124l21.792-21.976c0.446-0.462,1.435-0.884,2.075-0.884h14.416h1.157l0.021,0.004h0.196
			c0.429,0,0.779,0.349,0.779,0.778V279.278z"/>
		<path fill="#BDBBBB" d="M182.256,282.461c-0.184-1.186-1.035-2.142-2.161-2.487c-0.289-0.089-0.588-0.15-0.906-0.15
			c-1.717,0-3.114,1.395-3.114,3.11c0,0.327,0.065,0.637,0.159,0.934c0.356,1.12,1.322,1.96,2.513,2.131
			c0.146,0.021,0.291,0.045,0.442,0.045c1.717,0,3.115-1.395,3.115-3.11C182.304,282.773,182.28,282.617,182.256,282.461z
			 M177.632,282.935c0-0.212,0.044-0.414,0.121-0.598c0.156-0.372,0.452-0.67,0.822-0.829c0.189-0.081,0.396-0.128,0.614-0.128
			c0.859,0,1.558,0.698,1.558,1.555c0,0.857-0.698,1.555-1.558,1.555S177.632,283.792,177.632,282.935z"/>
	</g>
</g>
<g>
	<g>
		<path fill="#333333" d="M25,252c-5.398,0-24-15.912-24-28.031C1,212.958,11.766,204,25,204s24,8.958,24,19.969
			C49,236.088,30.398,252,25,252z M25,206.954c-11.291,0-20.476,7.633-20.476,17.015c0,11.148,17.572,24.619,20.476,25.073
			c2.905-0.454,20.476-13.925,20.476-25.073C45.476,214.587,36.291,206.954,25,206.954z M25,236.173
			c-7.638,0-13.853-5.21-13.853-11.613c0-6.403,6.215-11.612,13.853-11.612s13.853,5.209,13.853,11.612
			C38.853,230.963,32.638,236.173,25,236.173z M25,215.902c-5.695,0-10.329,3.884-10.329,8.658c0,4.775,4.634,8.659,10.329,8.659
			s10.329-3.884,10.329-8.659C35.329,219.786,30.695,215.902,25,215.902z"/>
	</g>
</g>
<g>
	<g>
		<path fill="#2EB88A" d="M95,252c-5.398,0-24-15.912-24-28.031C71,212.958,81.766,204,95,204s24,8.958,24,19.969
			C119,236.088,100.398,252,95,252z M95,206.954c-11.291,0-20.476,7.633-20.476,17.015c0,11.148,17.572,24.619,20.476,25.073
			c2.905-0.454,20.476-13.925,20.476-25.073C115.476,214.587,106.291,206.954,95,206.954z M95,236.173
			c-7.638,0-13.853-5.21-13.853-11.613c0-6.403,6.215-11.612,13.853-11.612s13.853,5.209,13.853,11.612
			C108.853,230.963,102.638,236.173,95,236.173z M95,215.902c-5.695,0-10.329,3.884-10.329,8.658c0,4.775,4.634,8.659,10.329,8.659
			c5.695,0,10.329-3.884,10.329-8.659C105.329,219.786,100.695,215.902,95,215.902z"/>
	</g>
</g>
<g>
	<g>
		<path fill="#BDBBBB" d="M165,252c-5.398,0-24-15.912-24-28.031C141,212.958,151.766,204,165,204c13.234,0,24,8.958,24,19.969
			C189,236.088,170.398,252,165,252z M165,206.954c-11.291,0-20.476,7.633-20.476,17.015c0,11.148,17.572,24.619,20.476,25.073
			c2.905-0.454,20.476-13.925,20.476-25.073C185.476,214.587,176.291,206.954,165,206.954z M165,236.173
			c-7.638,0-13.853-5.21-13.853-11.613c0-6.403,6.215-11.612,13.853-11.612c7.638,0,13.853,5.209,13.853,11.612
			C178.853,230.963,172.638,236.173,165,236.173z M165,215.902c-5.695,0-10.329,3.884-10.329,8.658
			c0,4.775,4.634,8.659,10.329,8.659c5.695,0,10.329-3.884,10.329-8.659C175.329,219.786,170.695,215.902,165,215.902z"/>
	</g>
</g>
<g>
	<polygon fill="none" points="185.284,8.957 185.245,8.891 181.086,4.741 179.809,6.002 183.99,10.251 	"/>
	<polygon fill="none" points="147.469,43.726 152.655,41.534 181.716,12.614 177.504,8.402 148.755,37.15 146.418,42.674 
		150.39,39.864 	"/>
	<g>
		<polygon fill="none" points="148.755,37.15 146.418,42.674 150.39,39.864 147.469,43.726 152.655,41.534 181.716,12.614 
			177.504,8.402 		"/>
		<polygon fill="none" points="185.245,8.891 181.086,4.741 179.809,6.002 183.99,10.251 185.284,8.957 		"/>
		<path fill="#333333" d="M181.074,1.536l-3.319,3.308l0,0l-1.148,1.144l0.006,0.006L146.99,35.698l-4.062,9.445l-0.189,0.44
			l-1.239,2.88l2.945-1.119l0.402-0.153l2.579-0.98l6.32-2.67l31.135-30.982l0.009,0.009l3.612-3.612L181.074,1.536z
			 M152.655,41.534l-5.187,2.192l2.921-3.862l-3.972,2.81l2.336-5.524l28.749-28.748l4.213,4.212L152.655,41.534z M183.99,10.251
			l-4.18-4.249l1.277-1.261l4.158,4.149l0.039,0.067L183.99,10.251z"/>
	</g>
</g>
<g>
	<polygon fill="none" points="42.418,9.982 7.596,9.982 25.007,27.28 	"/>
	<polygon fill="none" points="2.7,8.696 2.701,8.696 2.701,8.686 2.605,8.702 2.671,8.7 2.516,8.717 2.7,8.706 2.7,8.704 2.7,8.696 
		2.701,8.699 2.701,8.696 	"/>
	<path fill="#333333" d="M46.041,7.041L3.973,7C3.169,7,2.514,7.65,2.514,8.45L2.513,8.694l0.001,0.01L2.51,8.862
		C2.499,9.029,2.493,9.145,2.514,9.229V33.25v6v2.422c0,0.153,0.042,0.287,0.09,0.438C2.845,42.651,3.382,43,3.973,43h42.068
		c0.591,0,1.128-0.349,1.38-0.922c0.036-0.118,0.078-0.253,0.078-0.406V39.25v-6V8.491C47.5,7.691,46.846,7.041,46.041,7.041z
		 M42.418,9.982L25.007,27.28L7.596,9.982H42.418z M2.605,8.702l0.096-0.016c0,0.004,0,0.007,0,0.01l-0.001,0l0.001,0
		c0,0.001,0,0.002,0,0.003c0-0.001,0-0.002-0.001-0.003v0.008v0.003l-0.185,0.01L2.671,8.7L2.605,8.702z M44.582,39.25v0.768H5.432
		V39.25v-6V12.048l18.514,18.393c0.566,0.562,1.555,0.564,2.122,0l18.514-18.393V33.25V39.25z"/>
</g>
</svg>
