<?xml version="1.0" encoding="utf-8"?>
<!-- Generator: Adobe Illustrator 18.0.0, SVG Export Plug-In . SVG Version: 6.00 Build 0)  -->
<!DOCTYPE svg PUBLIC "-//W3C//DTD SVG 1.1//EN" "http://www.w3.org/Graphics/SVG/1.1/DTD/svg11.dtd">
<svg version="1.1" id="Layer_1" xmlns="http://www.w3.org/2000/svg" xmlns:xlink="http://www.w3.org/1999/xlink" x="0px" y="0px"
	 viewBox="0 0 50 50" enable-background="new 0 0 50 50" xml:space="preserve">
<path fill="#ED2224" d="M44.975,6.99c0.091-0.437-0.073-0.886-0.466-1.252C43.678,4.968,42.02,4.89,41.1,5.604
	c-1.987,1.544-4.242,3.295-7.173,3.295c-1.995-0.01-3.998-0.869-5.936-1.699c-0.725-0.311-1.439-0.616-2.143-0.878
	c-1.87-0.698-3.59-1.105-5.257-1.246c-1.877-0.159-3.914-0.069-6.363,0.29c-4.079,0.597-7.146,1.945-8.871,3.901
	c-0.441,0.502-0.469,1.087-0.115,1.574v14.887c-0.328,0.467-0.32,0.987,0,1.428v16.229C5.243,44.29,6.24,45,7.514,45
	c1.273,0,2.27-0.71,2.27-1.616V26.767c1.71-1.359,4.659-1.832,6.78-2.07c1.855-0.209,3.593-0.142,5.109,0.195
	c1.3,0.289,2.523,0.796,3.818,1.333l0.294,0.121c2.418,0.999,5.16,2.131,8.332,2.131c0.386,0,0.778-0.016,1.172-0.053
	c4.107-0.374,7.11-2.706,9.1-4.251c0.479-0.374,0.686-0.854,0.585-1.337V6.99z M9.784,22.767V10.453
	c1.709-1.36,4.658-1.832,6.78-2.071c1.855-0.209,3.593-0.142,5.109,0.195c1.3,0.289,2.523,0.796,3.818,1.332l0.294,0.122
	c2.713,1.121,5.869,2.407,9.505,2.078c2-0.182,3.706-0.816,5.144-1.577v11.898c-1.974,1.499-3.982,2.781-6.508,2.781
	c-1.995-0.01-3.999-0.869-5.937-1.7c-0.725-0.31-1.437-0.615-2.141-0.877c-1.871-0.697-3.59-1.105-5.257-1.245
	c-0.592-0.05-1.211-0.076-1.838-0.076c-1.366,0-2.846,0.12-4.525,0.365C12.569,21.923,11.084,22.287,9.784,22.767z"/>
</svg>
