<?xml version="1.0" encoding="utf-8"?>
<!-- Generator: Adobe Illustrator 18.0.0, SVG Export Plug-In . SVG Version: 6.00 Build 0)  -->
<!DOCTYPE svg PUBLIC "-//W3C//DTD SVG 1.1//EN" "http://www.w3.org/Graphics/SVG/1.1/DTD/svg11.dtd">
<svg version="1.1" id="Layer_1" xmlns="http://www.w3.org/2000/svg" xmlns:xlink="http://www.w3.org/1999/xlink" x="0px" y="0px"
	 viewBox="0 0 50 50" enable-background="new 0 0 50 50" xml:space="preserve">
<g>
	<g>
		<path fill="#989898" d="M42.068,44.344c-3.234-0.628-6.739-1.033-9.643-2.322c-1.858-0.825-3.724-2.01-5.855-2.412
			c-2.412-0.454-4.816,0.352-6.65,1.428c-1.503,0.882-2.923,1.838-4.473,2.675c-1.728,0.934-4.414,0.539-6.392,0.55
			c-0.808,0.004-1.438,0.209-1.911,0.52h1.699v1.431h33.193v-1.431h1.214C42.939,44.591,42.548,44.438,42.068,44.344z"/>
	</g>
	<g>
		<g>
			<g>
				<path fill="#333333" d="M41.146,48.135H9.05c-1.202,0-2.179-0.862-2.179-1.921v-5.676c0-7.414,5.716-12.664,9.976-15.546
					c-4.203-2.878-9.829-8.115-9.829-15.531V3.785c0-1.059,0.977-1.92,2.179-1.92h31.948c1.202,0,2.179,0.861,2.179,1.92v5.677
					c0,7.414-5.713,12.662-9.974,15.543c4.259,2.903,9.974,8.178,9.974,15.579v5.63C43.325,47.273,42.348,48.135,41.146,48.135z
					 M9.446,45.865H40.75v-5.281c0-7.25-6.464-12.291-10.316-14.651l-1.529-0.937l1.533-0.93C35.142,21.211,40.75,16.36,40.75,9.462
					V4.135H9.594v5.327c0,7.277,6.372,12.273,10.17,14.604l1.525,0.937l-1.53,0.929c-4.705,2.857-10.312,7.71-10.312,14.607V45.865z
					"/>
			</g>
		</g>
		<g>
			<path fill="#333333" d="M47.588,5H2.412C1.631,5,1,4.104,1,3s0.631-2,1.412-2h45.176C48.369,1,49,1.895,49,3S48.369,5,47.588,5z"
				/>
		</g>
		<g>
			<path fill="#333333" d="M47.588,49H2.412C1.631,49,1,48.105,1,47c0-1.104,0.631-2,1.412-2h45.176C48.369,45,49,45.896,49,47
				C49,48.105,48.369,49,47.588,49z"/>
		</g>
	</g>
</g>
</svg>
