<?xml version="1.0" encoding="utf-8"?>
<!-- Generator: Adobe Illustrator 18.0.0, SVG Export Plug-In . SVG Version: 6.00 Build 0)  -->
<!DOCTYPE svg PUBLIC "-//W3C//DTD SVG 1.1//EN" "http://www.w3.org/Graphics/SVG/1.1/DTD/svg11.dtd">
<svg version="1.1" id="Layer_1" xmlns="http://www.w3.org/2000/svg" xmlns:xlink="http://www.w3.org/1999/xlink" x="0px" y="0px"
	 viewBox="0 0 50 50" enable-background="new 0 0 50 50" xml:space="preserve">
<path fill="#2EB88A" d="M43.957,6.16c-1.124-0.912-2.701-0.629-3.515,0.632l-19.443,30.08L9.501,20.428
	c-0.858-1.227-2.443-1.441-3.535-0.483c-1.096,0.959-1.288,2.731-0.432,3.956l13.56,19.392c0.017,0.025,0.04,0.041,0.058,0.065
	c0.075,0.101,0.16,0.192,0.249,0.282c0.052,0.053,0.102,0.109,0.157,0.156c0.016,0.013,0.027,0.03,0.044,0.043
	c0.12,0.097,0.245,0.178,0.373,0.248c0.025,0.014,0.051,0.022,0.077,0.035c0.133,0.067,0.269,0.119,0.408,0.158
	c0.041,0.011,0.08,0.022,0.121,0.031c0.164,0.037,0.329,0.062,0.495,0.062c0.001,0,0.001,0,0.002,0s0.002,0,0.002,0
	c0.173,0,0.346-0.027,0.517-0.067c0.043-0.01,0.085-0.023,0.128-0.036c0.139-0.041,0.276-0.096,0.409-0.165
	c0.032-0.016,0.065-0.029,0.096-0.046c0.139-0.08,0.274-0.172,0.401-0.284c0.013-0.011,0.022-0.025,0.034-0.037
	c0.046-0.042,0.086-0.093,0.129-0.139c0.099-0.104,0.192-0.212,0.273-0.33c0.016-0.023,0.037-0.039,0.052-0.063l21.404-33.114
	C45.337,8.834,45.085,7.072,43.957,6.16z"/>
</svg>
