<?xml version="1.0" encoding="utf-8"?>
<!-- Generator: Adobe Illustrator 18.0.0, SVG Export Plug-In . SVG Version: 6.00 Build 0)  -->
<!DOCTYPE svg PUBLIC "-//W3C//DTD SVG 1.1//EN" "http://www.w3.org/Graphics/SVG/1.1/DTD/svg11.dtd">
<svg version="1.1" id="Layer_1" xmlns="http://www.w3.org/2000/svg" xmlns:xlink="http://www.w3.org/1999/xlink" x="0px" y="0px"
	 viewBox="0 0 50 50" enable-background="new 0 0 50 50" xml:space="preserve">
<path fill="#FFFFFF" d="M25,32.493c-4.132,0-7.493-3.361-7.493-7.493s3.361-7.493,7.493-7.493s7.493,3.361,7.493,7.493
	S29.132,32.493,25,32.493z M25,20.004c-2.755,0-4.996,2.24-4.996,4.996s2.24,4.996,4.996,4.996s4.996-2.24,4.996-4.996
	S27.755,20.004,25,20.004z"/>
<path fill="#FFFFFF" d="M21.326,47.501c-0.066,0-0.329-0.021-0.394-0.032l0,0c0,0-0.61-0.093-1.499-0.316
	c-0.896-0.224-1.477-0.432-1.477-0.432c-1.072-0.374-1.875-1.517-1.861-2.655l0.045-4.624c0.001-0.182-0.194-0.546-0.349-0.648
	l-1.282-0.946c-0.14-0.116-0.385-0.209-0.633-0.209l-4.558,1.393c-1.083,0.343-2.44-0.143-3.075-1.067l-1.498-2.5
	c-0.573-1.088-0.352-2.473,0.478-3.283l3.297-3.236c0.127-0.126,0.249-0.524,0.212-0.699l-0.235-1.584
	c-0.024-0.252-0.255-0.599-0.412-0.682l-4.1-2.148c-1.009-0.527-1.636-1.775-1.455-2.901l0,0c0,0,0.094-0.61,0.317-1.499
	c0.224-0.895,0.429-1.475,0.429-1.475c0.371-1.061,1.501-1.864,2.627-1.864l4.653,0.045c0.184,0,0.548-0.194,0.648-0.346
	l0.946-1.283c0.167-0.201,0.248-0.607,0.194-0.779l-1.378-4.413c-0.341-1.103,0.118-2.423,1.068-3.073l2.499-1.498
	c1.168-0.613,2.495-0.329,3.283,0.476l3.236,3.298c0.085,0.087,0.379,0.217,0.629,0.217l1.655-0.24
	c0.251-0.024,0.598-0.254,0.679-0.412l2.15-4.1c0.454-0.873,1.486-1.487,2.506-1.487c0.066,0,0.329,0.021,0.394,0.032l0,0
	c0,0,0.61,0.094,1.499,0.317c0.896,0.224,1.477,0.432,1.477,0.432c1.072,0.372,1.875,1.515,1.861,2.655l-0.045,4.624
	c-0.001,0.178,0.196,0.546,0.346,0.645l1.284,0.95c0.139,0.115,0.387,0.207,0.634,0.207l4.557-1.393
	c1.083-0.341,2.44,0.143,3.075,1.067l1.498,2.5c0.573,1.088,0.352,2.473-0.478,3.283l-3.297,3.234
	c-0.127,0.124-0.249,0.526-0.212,0.7l0.235,1.584c0.024,0.251,0.256,0.599,0.415,0.682l4.098,2.148
	c1.009,0.524,1.636,1.772,1.455,2.901c0,0.002-0.094,0.611-0.317,1.499c-0.224,0.893-0.429,1.475-0.429,1.475
	c-0.371,1.061-1.501,1.864-2.627,1.864l0,0l-4.653-0.045l0,0c-0.185,0-0.548,0.194-0.646,0.345l-0.948,1.284
	c-0.167,0.201-0.248,0.607-0.194,0.779l1.378,4.413c0.341,1.101-0.117,2.421-1.066,3.072l-2.501,1.499
	c-1.174,0.62-2.498,0.328-3.283-0.476l-3.236-3.299c-0.084-0.085-0.379-0.216-0.629-0.216l-1.655,0.24
	c-0.251,0.024-0.598,0.254-0.681,0.411l-2.149,4.1C23.378,46.889,22.347,47.501,21.326,47.501z M13.877,35.142
	c0.815,0,1.632,0.281,2.186,0.751l1.159,0.854c0.805,0.526,1.426,1.687,1.417,2.717l-0.045,4.628c0.006,0.082,0.12,0.24,0.195,0.273
	c0.027,0.01,0.513,0.179,1.253,0.365c0.74,0.185,1.253,0.267,1.278,0.271l0.007,0.001c0.099,0,0.255-0.087,0.294-0.149l2.149-4.098
	c0.478-0.915,1.572-1.643,2.603-1.733l1.435-0.213c0.109-0.026,0.306-0.045,0.51-0.045c0.889,0,1.836,0.378,2.411,0.964l3.238,3.302
	l0.282,0.043l2.37-1.42c-0.012-0.001,0.044-0.162,0.029-0.233l-1.377-4.408c-0.31-0.993-0.046-2.286,0.623-3.073l0.854-1.159
	c0.518-0.796,1.668-1.417,2.694-1.417l4.652,0.045c0.082-0.006,0.24-0.12,0.273-0.195c0.009-0.023,0.177-0.512,0.363-1.253
	c0.185-0.743,0.268-1.255,0.272-1.281c0.007-0.083-0.078-0.256-0.148-0.3l-4.098-2.148c-0.916-0.481-1.645-1.576-1.734-2.604
	l-0.213-1.435c-0.199-0.934,0.182-2.194,0.918-2.92l3.302-3.239c0.045-0.052,0.071-0.215,0.045-0.281l-1.421-2.37
	c0.018,0.032-0.101-0.032-0.209-0.032l-4.432,1.378c-0.973,0.304-2.304,0.03-3.073-0.621l-1.16-0.857
	c-0.804-0.522-1.426-1.682-1.417-2.715l0.045-4.628c-0.006-0.082-0.118-0.24-0.194-0.273c-0.028-0.01-0.515-0.179-1.254-0.365
	c-0.743-0.185-1.255-0.268-1.281-0.272c-0.051-0.015-0.26,0.084-0.299,0.148l-2.149,4.099c-0.477,0.913-1.572,1.643-2.603,1.733
	l-1.435,0.213c-0.109,0.026-0.306,0.045-0.51,0.045c-0.89,0-1.837-0.379-2.412-0.966l-3.237-3.299l-0.281-0.044l-2.371,1.421
	c0.012,0.002-0.044,0.162-0.029,0.233l1.377,4.408c0.31,0.993,0.046,2.286-0.623,3.073l-0.854,1.159
	c-0.52,0.796-1.671,1.417-2.697,1.417l-4.649-0.045c-0.082,0.006-0.24,0.12-0.273,0.195c-0.009,0.024-0.177,0.512-0.363,1.253
	c-0.185,0.743-0.268,1.255-0.272,1.281c-0.007,0.083,0.079,0.257,0.149,0.301l4.097,2.147c0.915,0.478,1.645,1.573,1.734,2.604
	l0.213,1.435c0.199,0.935-0.182,2.195-0.92,2.92l-3.3,3.239c-0.045,0.052-0.071,0.215-0.045,0.281l1.421,2.37
	c-0.017-0.027,0.101,0.033,0.209,0.032l4.432-1.378C13.261,35.185,13.56,35.142,13.877,35.142z"/>
</svg>
