<?xml version="1.0" encoding="utf-8"?>
<!-- Generator: Adobe Illustrator 18.0.0, SVG Export Plug-In . SVG Version: 6.00 Build 0)  -->
<!DOCTYPE svg PUBLIC "-//W3C//DTD SVG 1.1//EN" "http://www.w3.org/Graphics/SVG/1.1/DTD/svg11.dtd">
<svg version="1.1" id="Layer_1" xmlns="http://www.w3.org/2000/svg" xmlns:xlink="http://www.w3.org/1999/xlink" x="0px" y="0px"
	 viewBox="0 0 50 50" enable-background="new 0 0 50 50" xml:space="preserve">
<g>
	<path fill="#FEBF4F" d="M13.338,30.902c-1.174,0-2.129,0.958-2.129,2.136v2.054C9.061,32.165,7.93,28.699,7.93,25.01
		c0-4.559,1.77-8.845,4.981-12.069c3.16-3.175,7.553-4.996,12.051-4.996c2.024,0,4.008,0.357,5.895,1.061
		c0.226,0.085,0.465,0.128,0.712,0.128c0.895,0,1.729-0.571,2.028-1.387c0.197-0.536,0.176-1.117-0.061-1.635
		c-0.238-0.519-0.662-0.913-1.194-1.11c-2.365-0.882-4.849-1.33-7.38-1.33c-5.618,0-11.108,2.278-15.063,6.249
		c-4.016,4.03-6.227,9.389-6.227,15.089c0,4.847,1.654,9.552,4.674,13.327H5.933c-1.174,0-2.129,0.958-2.129,2.136
		s0.955,2.137,2.129,2.137l7.375,0.029c0.101,0,0.184-0.022,0.318-0.057c0.091-0.014,0.18-0.03,0.283-0.059
		c0.113-0.033,0.223-0.067,0.323-0.117c0.192-0.09,0.372-0.211,0.483-0.322l0.139-0.116c0.395-0.403,0.611-0.932,0.611-1.495v-7.435
		C15.466,31.86,14.512,30.902,13.338,30.902z"/>
	<path fill="#FEBF4F" d="M41.633,11.632h2.561c1.175,0,2.13-0.958,2.13-2.137c0-1.178-0.955-2.136-2.13-2.136h-7.405
		c-1.174,0-2.129,0.958-2.129,2.136v7.435c0,1.178,0.955,2.137,2.129,2.137c1.175,0,2.13-0.958,2.13-2.137v-1.84
		c2.066,2.894,3.153,6.294,3.153,9.895c0,4.56-1.77,8.846-4.982,12.07c-3.211,3.225-7.484,5.001-12.033,5.001
		c-2.116,0-4.186-0.39-6.15-1.157c-1.042-0.412-2.367,0.182-2.765,1.215c-0.425,1.098,0.119,2.338,1.213,2.764
		c2.466,0.963,5.058,1.451,7.702,1.451c5.687,0,11.029-2.221,15.046-6.253c4.016-4.03,6.227-9.39,6.227-15.091
		C46.328,20.125,44.666,15.412,41.633,11.632z"/>
</g>
</svg>
