<?xml version="1.0" encoding="utf-8"?>
<!-- Generator: Adobe Illustrator 18.0.0, SVG Export Plug-In . SVG Version: 6.00 Build 0)  -->
<!DOCTYPE svg PUBLIC "-//W3C//DTD SVG 1.1//EN" "http://www.w3.org/Graphics/SVG/1.1/DTD/svg11.dtd">
<svg version="1.1" id="Layer_1" xmlns="http://www.w3.org/2000/svg" xmlns:xlink="http://www.w3.org/1999/xlink" x="0px" y="0px"
	 viewBox="0 0 50 50" enable-background="new 0 0 50 50" xml:space="preserve">
<path fill="#333333" d="M49.449,46.277C47.76,39.62,41.22,38.12,37.685,37.31c-0.631-0.144-1.344-0.309-1.592-0.422
	c-2.019-0.927-3.328-2.283-3.895-4.033c2.174-2.138,4.026-5.314,5.094-8.74c1.213-1.709,1.881-3.503,1.881-5.054
	c0-1.043-0.292-1.945-0.868-2.682C37.843,8.266,32.107,1.837,25.224,1.733L25.1,1.731c-6.682,0.037-12.4,6.267-13.044,14.195
	c-0.837,0.791-1.279,1.873-1.279,3.135c0,1.816,0.925,3.969,2.539,5.911c1.039,2.949,2.632,5.63,4.495,7.565
	c-0.562,1.767-1.876,3.135-3.908,4.066c-0.257,0.118-0.971,0.297-1.544,0.441c-3.534,0.889-10.112,2.542-11.808,9.232
	c-0.214,0.84,0.269,1.712,1.082,1.945c0.777,0.199,1.627-0.329,1.831-1.126c1.234-4.867,6.491-6.19,9.631-6.98
	c0.818-0.205,1.523-0.383,2.018-0.609c4.113-1.886,5.457-4.951,5.86-7.189c0.101-0.551-0.087-1.123-0.491-1.493
	c-1.854-1.691-3.425-4.249-4.425-7.202c-0.066-0.202-0.173-0.39-0.308-0.542c-1.225-1.41-1.957-2.912-1.957-4.018
	c0-0.472,0.127-0.711,0.503-0.948c0.434-0.277,0.706-0.759,0.728-1.289c0.268-6.655,4.707-11.896,10.096-11.932l0.169,0.009
	c5.463,0.082,9.867,5.435,10.029,12.185c0.011,0.45,0.204,0.876,0.531,1.169c0.224,0.198,0.311,0.423,0.311,0.805
	c0,0.911-0.513,2.126-1.408,3.331c-0.115,0.154-0.2,0.324-0.253,0.506c-1.015,3.39-2.816,6.371-4.944,8.179
	c-0.429,0.369-0.631,0.952-0.528,1.523c0.404,2.238,1.747,5.302,5.859,7.191c0.524,0.24,1.253,0.407,2.177,0.619
	c3.089,0.707,8.259,1.89,9.475,6.688c0.178,0.69,0.776,1.171,1.456,1.171c0.131,0,0.259-0.018,0.395-0.054
	C49.187,47.986,49.663,47.116,49.449,46.277z"/>
</svg>
