<?xml version="1.0" encoding="utf-8"?>
<!-- Generator: Adobe Illustrator 18.0.0, SVG Export Plug-In . SVG Version: 6.00 Build 0)  -->
<!DOCTYPE svg PUBLIC "-//W3C//DTD SVG 1.1//EN" "http://www.w3.org/Graphics/SVG/1.1/DTD/svg11.dtd">
<svg version="1.1" id="Layer_1" xmlns="http://www.w3.org/2000/svg" xmlns:xlink="http://www.w3.org/1999/xlink" x="0px" y="0px"
	 viewBox="0 0 50 50" enable-background="new 0 0 50 50" xml:space="preserve">
<g>
	<g>
		<path fill="#BDBBBB" d="M48.304,4.379c-0.339-1.103-1.125-2.006-2.159-2.489c-0.522-0.244-1.098-0.39-1.711-0.39H28.861
			c-1.548,0-3.373,0.775-4.419,1.865L2.63,25.362c-1.529,1.593-1.504,4.161,0.059,5.726l16.237,16.215
			c0.772,0.771,1.801,1.196,2.901,1.196c1.065,0,2.077-0.406,2.868-1.164l10.568-10.472l2.334-2.313l9.005-8.923
			c1.117-1.068,1.898-2.894,1.898-4.44V5.561C48.5,5.147,48.419,4.755,48.304,4.379z M45.429,7.278v13.915
			c0,0.641-0.421,1.627-0.894,2.079l-9.152,9.068l-2.334,2.313L22.605,45.001c-0.148,0.142-0.354,0.212-0.56,0.212
			c-0.041,0-0.078-0.016-0.118-0.022c-0.033,0.004-0.065,0.017-0.098,0.017c-0.212,0-0.425-0.075-0.575-0.225L5.015,28.767
			c-0.304-0.304-0.309-0.823-0.02-1.124L26.786,5.667c0.446-0.462,1.435-0.884,2.075-0.884h14.416h1.157l0.021,0.004h0.196
			c0.429,0,0.779,0.349,0.779,0.778V7.278z"/>
		<path fill="#BDBBBB" d="M42.256,10.461c-0.184-1.186-1.035-2.142-2.161-2.487c-0.289-0.089-0.588-0.15-0.906-0.15
			c-1.717,0-3.114,1.395-3.114,3.11c0,0.327,0.065,0.637,0.159,0.934c0.356,1.12,1.322,1.96,2.513,2.131
			c0.146,0.021,0.291,0.045,0.442,0.045c1.717,0,3.115-1.395,3.115-3.11C42.304,10.773,42.28,10.617,42.256,10.461z M37.632,10.935
			c0-0.212,0.044-0.414,0.121-0.598c0.156-0.372,0.452-0.67,0.822-0.829c0.189-0.081,0.396-0.128,0.614-0.128
			c0.859,0,1.558,0.698,1.558,1.555c0,0.857-0.698,1.555-1.558,1.555C38.33,12.49,37.632,11.792,37.632,10.935z"/>
	</g>
</g>
</svg>
