<?xml version="1.0" encoding="utf-8"?>
<!-- Generator: Adobe Illustrator 18.0.0, SVG Export Plug-In . SVG Version: 6.00 Build 0)  -->
<!DOCTYPE svg PUBLIC "-//W3C//DTD SVG 1.1//EN" "http://www.w3.org/Graphics/SVG/1.1/DTD/svg11.dtd">
<svg version="1.1" id="Layer_1" xmlns="http://www.w3.org/2000/svg" xmlns:xlink="http://www.w3.org/1999/xlink" x="0px" y="0px"
	 viewBox="0 0 50 50" enable-background="new 0 0 50 50" xml:space="preserve">
<g>
	<g>
		<g>
			<path fill="#BDBBBB" d="M230.168,223.389c0.862-1.149,2.533-1.958,4.49-1.958c3.393,0,5.561,2.062,5.561,4.725
				c0,2.375-1.645,4.359-4.83,5.064l-0.261,2.767h-1.436l-0.469-4.229c3.183-0.522,4.567-1.932,4.567-3.55
				c0-1.592-1.201-2.767-3.21-2.767c-1.227,0-2.142,0.365-2.637,1.044c-0.027,0.026-0.052,0.052-0.052,0.078
				c0.418,0.131,0.679,0.626,0.679,1.096c0,0.809-0.522,1.436-1.357,1.436c-0.888,0-1.723-0.731-1.723-1.827
				C229.489,224.59,229.724,223.964,230.168,223.389z M232.752,237.433c0-0.94,0.758-1.723,1.671-1.723
				c0.94,0,1.697,0.783,1.697,1.723c0,0.94-0.758,1.697-1.697,1.697C233.509,239.13,232.752,238.373,232.752,237.433z"/>
		</g>
	</g>
	<g>
		<path fill="#BDBBBB" d="M235,253c-12.683,0-23-10.317-23-23s10.317-23,23-23s23,10.317,23,23S247.683,253,235,253z M235,209.486
			c-11.311,0-20.514,9.202-20.514,20.514s9.203,20.514,20.514,20.514s20.514-9.202,20.514-20.514S246.311,209.486,235,209.486z"/>
	</g>
</g>
<g>
	<path fill="#333333" d="M109.17,275.956h-1.988c-0.288-1.4-1.534-2.456-3.025-2.456H85.844c-1.49,0-2.737,1.057-3.024,2.456h-1.988
		c-3.137,0-5.688,2.539-5.688,5.66v32.224c0,3.121,2.552,5.66,5.688,5.66h28.338c3.136,0,5.687-2.539,5.687-5.66v-32.224
		C114.857,278.495,112.305,275.956,109.17,275.956z M85.601,276.572c0-0.133,0.109-0.243,0.243-0.243h18.313
		c0.135,0,0.244,0.109,0.244,0.243v2.213v5.044c0,0.133-0.109,0.242-0.244,0.242H85.844c-0.133,0-0.243-0.109-0.243-0.242v-5.044
		V276.572z M112.013,313.84c0,1.561-1.274,2.83-2.843,2.83H80.832c-1.568,0-2.844-1.27-2.844-2.83v-32.224
		c0-1.561,1.276-2.83,2.844-2.83h1.925v5.044c0,1.694,1.385,3.072,3.087,3.072h18.313c1.703,0,3.088-1.378,3.088-3.072v-5.044h1.925
		c1.568,0,2.843,1.27,2.843,2.83V313.84z"/>
	<path fill="#333333" d="M105.822,292.214H84.179c-0.785,0-1.422,0.633-1.422,1.415c0,0.782,0.637,1.415,1.422,1.415h21.643
		c0.785,0,1.422-0.633,1.422-1.415C107.244,292.847,106.608,292.214,105.822,292.214z"/>
	<path fill="#333333" d="M105.822,300.469H84.179c-0.785,0-1.422,0.633-1.422,1.415c0,0.782,0.637,1.415,1.422,1.415h21.643
		c0.785,0,1.422-0.633,1.422-1.415C107.244,301.102,106.608,300.469,105.822,300.469z"/>
	<path fill="#333333" d="M105.822,308.724H84.179c-0.785,0-1.422,0.633-1.422,1.415s0.637,1.415,1.422,1.415h21.643
		c0.785,0,1.422-0.633,1.422-1.415S106.608,308.724,105.822,308.724z"/>
</g>
<path fill="#333333" d="M49.449-93.723c-1.688-6.657-8.229-8.156-11.764-8.967c-0.631-0.144-1.344-0.309-1.592-0.422
	c-2.019-0.927-3.328-2.283-3.895-4.033c2.174-2.138,4.026-5.314,5.094-8.74c1.213-1.709,1.881-3.503,1.881-5.054
	c0-1.043-0.292-1.945-0.868-2.682c-0.462-8.113-6.198-14.542-13.082-14.647l-0.124-0.001c-6.682,0.037-12.4,6.267-13.044,14.195
	c-0.837,0.791-1.279,1.873-1.279,3.135c0,1.816,0.925,3.969,2.539,5.911c1.039,2.949,2.632,5.63,4.495,7.565
	c-0.562,1.767-1.876,3.135-3.908,4.066c-0.257,0.118-0.971,0.297-1.544,0.441c-3.534,0.889-10.112,2.542-11.808,9.232
	c-0.214,0.84,0.269,1.712,1.082,1.945c0.777,0.199,1.627-0.329,1.831-1.126c1.234-4.867,6.491-6.19,9.631-6.98
	c0.818-0.205,1.523-0.383,2.018-0.609c4.113-1.886,5.457-4.951,5.86-7.189c0.101-0.551-0.087-1.123-0.491-1.493
	c-1.854-1.691-3.425-4.249-4.425-7.202c-0.066-0.202-0.173-0.39-0.308-0.542c-1.225-1.41-1.957-2.912-1.957-4.018
	c0-0.472,0.127-0.711,0.503-0.948c0.434-0.277,0.706-0.759,0.728-1.289c0.268-6.655,4.707-11.896,10.096-11.932l0.169,0.009
	c5.463,0.082,9.867,5.435,10.029,12.185c0.011,0.45,0.204,0.876,0.531,1.169c0.224,0.198,0.311,0.423,0.311,0.805
	c0,0.911-0.513,2.126-1.408,3.331c-0.115,0.154-0.2,0.324-0.253,0.506c-1.015,3.39-2.816,6.371-4.944,8.179
	c-0.429,0.369-0.631,0.952-0.528,1.523c0.404,2.238,1.747,5.302,5.859,7.191c0.524,0.24,1.253,0.407,2.177,0.619
	c3.089,0.707,8.259,1.89,9.475,6.688c0.178,0.69,0.776,1.171,1.456,1.171c0.131,0,0.259-0.018,0.395-0.054
	C49.187-92.014,49.663-92.884,49.449-93.723z"/>
<g>
	<g>
		<g>
			<path fill="#333333" d="M118.304,136.379c-0.339-1.103-1.125-2.006-2.159-2.489c-0.522-0.244-1.098-0.39-1.711-0.39H98.861
				c-1.548,0-3.373,0.775-4.419,1.865L72.63,157.362c-1.529,1.593-1.504,4.161,0.059,5.726l16.237,16.215
				c0.772,0.771,1.801,1.196,2.901,1.196c1.065,0,2.077-0.406,2.868-1.164l10.568-10.472l2.334-2.313l9.005-8.923
				c1.117-1.068,1.898-2.894,1.898-4.44v-15.628C118.5,137.147,118.419,136.755,118.304,136.379z M115.429,139.278v13.915
				c0,0.641-0.421,1.627-0.894,2.079l-9.152,9.068l-2.334,2.313l-10.445,10.349c-0.148,0.142-0.354,0.212-0.56,0.212
				c-0.041,0-0.078-0.016-0.118-0.022c-0.033,0.004-0.065,0.017-0.098,0.017c-0.212,0-0.425-0.075-0.575-0.225l-16.239-16.216
				c-0.304-0.304-0.309-0.823-0.02-1.124l21.792-21.976c0.446-0.462,1.435-0.884,2.075-0.884h14.416h1.157l0.021,0.004h0.196
				c0.429,0,0.779,0.349,0.779,0.778V139.278z"/>
			<path fill="#333333" d="M112.256,142.461c-0.184-1.186-1.035-2.142-2.161-2.487c-0.289-0.089-0.588-0.15-0.906-0.15
				c-1.717,0-3.114,1.395-3.114,3.11c0,0.327,0.065,0.637,0.159,0.934c0.356,1.12,1.322,1.96,2.513,2.131
				c0.146,0.021,0.291,0.045,0.442,0.045c1.717,0,3.115-1.395,3.115-3.11C112.304,142.773,112.28,142.617,112.256,142.461z
				 M107.632,142.935c0-0.212,0.044-0.414,0.121-0.598c0.156-0.372,0.452-0.67,0.822-0.829c0.189-0.081,0.396-0.128,0.614-0.128
				c0.859,0,1.558,0.698,1.558,1.555s-0.698,1.555-1.558,1.555C108.33,144.49,107.632,143.792,107.632,142.935z"/>
		</g>
	</g>
</g>
<g>
	<path fill="#FEBF4F" d="M153.338-39.098c-1.174,0-2.129,0.958-2.129,2.136v2.054c-2.148-2.927-3.279-6.393-3.279-10.082
		c0-4.559,1.77-8.845,4.981-12.069c3.16-3.175,7.553-4.996,12.051-4.996c2.024,0,4.008,0.357,5.895,1.061
		c0.226,0.085,0.465,0.128,0.712,0.128c0.895,0,1.729-0.571,2.028-1.387c0.197-0.536,0.176-1.117-0.061-1.635
		c-0.238-0.519-0.662-0.913-1.194-1.11c-2.365-0.882-4.849-1.33-7.38-1.33c-5.618,0-11.108,2.278-15.063,6.249
		c-4.016,4.03-6.227,9.389-6.227,15.089c0,4.847,1.654,9.552,4.674,13.327h-2.413c-1.174,0-2.129,0.958-2.129,2.136
		s0.955,2.137,2.129,2.137l7.375,0.029c0.101,0,0.184-0.022,0.318-0.057c0.091-0.014,0.18-0.03,0.283-0.059
		c0.113-0.033,0.223-0.067,0.323-0.117c0.192-0.09,0.372-0.211,0.483-0.322l0.139-0.116c0.395-0.403,0.611-0.932,0.611-1.495v-7.435
		C155.466-38.14,154.512-39.098,153.338-39.098z"/>
	<path fill="#FEBF4F" d="M181.633-58.368h2.561c1.175,0,2.13-0.958,2.13-2.137c0-1.178-0.955-2.136-2.13-2.136h-7.405
		c-1.174,0-2.129,0.958-2.129,2.136v7.435c0,1.178,0.955,2.137,2.129,2.137c1.175,0,2.13-0.958,2.13-2.137v-1.84
		c2.066,2.894,3.153,6.294,3.153,9.895c0,4.56-1.77,8.846-4.982,12.07c-3.211,3.225-7.484,5.001-12.033,5.001
		c-2.116,0-4.186-0.39-6.15-1.157c-1.042-0.412-2.367,0.182-2.765,1.215c-0.425,1.098,0.119,2.338,1.213,2.764
		c2.466,0.963,5.058,1.451,7.702,1.451c5.687,0,11.029-2.221,15.046-6.253c4.016-4.03,6.227-9.39,6.227-15.091
		C186.328-49.875,184.666-54.588,181.633-58.368z"/>
</g>
<path fill="#ED2224" d="M114.975-63.01c0.091-0.437-0.073-0.886-0.466-1.252c-0.831-0.771-2.489-0.849-3.409-0.135
	c-1.987,1.544-4.242,3.295-7.173,3.295c-1.995-0.01-3.998-0.869-5.936-1.699c-0.725-0.311-1.439-0.616-2.143-0.878
	c-1.87-0.698-3.59-1.105-5.257-1.246c-1.877-0.159-3.914-0.069-6.363,0.29c-4.079,0.597-7.146,1.945-8.871,3.901
	c-0.441,0.502-0.469,1.087-0.115,1.574v14.887c-0.328,0.467-0.32,0.987,0,1.428v16.229c0,0.906,0.997,1.616,2.271,1.616
	c1.273,0,2.27-0.71,2.27-1.616v-16.617c1.71-1.359,4.659-1.832,6.78-2.07c1.855-0.209,3.593-0.142,5.109,0.195
	c1.3,0.289,2.523,0.796,3.818,1.333l0.294,0.121c2.418,0.999,5.16,2.131,8.332,2.131c0.386,0,0.778-0.016,1.172-0.053
	c4.107-0.374,7.11-2.706,9.1-4.251c0.479-0.374,0.686-0.854,0.585-1.337V-63.01z M79.784-47.233v-12.314
	c1.709-1.36,4.658-1.832,6.78-2.071c1.855-0.209,3.593-0.142,5.109,0.195c1.3,0.289,2.523,0.796,3.818,1.332l0.294,0.122
	c2.713,1.121,5.869,2.407,9.505,2.078c2-0.182,3.706-0.816,5.144-1.577v11.898c-1.974,1.499-3.982,2.781-6.508,2.781
	c-1.995-0.01-3.999-0.869-5.937-1.7c-0.725-0.31-1.437-0.615-2.141-0.877c-1.871-0.697-3.59-1.105-5.257-1.245
	c-0.592-0.05-1.211-0.076-1.838-0.076c-1.366,0-2.846,0.12-4.525,0.365C82.569-48.077,81.084-47.713,79.784-47.233z"/>
<g>
	<g>
		<path fill="#989898" d="M42.068-25.656c-3.234-0.628-6.739-1.033-9.643-2.322c-1.858-0.825-3.724-2.01-5.855-2.412
			c-2.412-0.454-4.816,0.352-6.65,1.428c-1.503,0.882-2.923,1.838-4.473,2.675c-1.728,0.934-4.414,0.539-6.392,0.55
			c-0.808,0.004-1.438,0.209-1.911,0.52h1.699v1.431h33.193v-1.431h1.214C42.939-25.409,42.548-25.562,42.068-25.656z"/>
	</g>
	<g>
		<g>
			<g>
				<path fill="#333333" d="M41.146-21.865H9.05c-1.202,0-2.179-0.862-2.179-1.921v-5.676c0-7.414,5.716-12.664,9.976-15.546
					c-4.203-2.878-9.829-8.115-9.829-15.531v-5.677c0-1.059,0.977-1.92,2.179-1.92h31.948c1.202,0,2.179,0.861,2.179,1.92v5.677
					c0,7.414-5.713,12.662-9.974,15.543c4.259,2.903,9.974,8.178,9.974,15.579v5.63C43.325-22.727,42.348-21.865,41.146-21.865z
					 M9.446-24.135H40.75v-5.281c0-7.25-6.464-12.291-10.316-14.651l-1.529-0.937l1.533-0.93
					c4.705-2.855,10.312-7.706,10.312-14.605v-5.327H9.594v5.327c0,7.277,6.372,12.273,10.17,14.604l1.525,0.937l-1.53,0.929
					c-4.705,2.857-10.312,7.71-10.312,14.607V-24.135z"/>
			</g>
		</g>
		<g>
			<path fill="#333333" d="M47.588-65H2.412C1.631-65,1-65.896,1-67c0-1.104,0.631-2,1.412-2h45.176C48.369-69,49-68.105,49-67
				C49-65.896,48.369-65,47.588-65z"/>
		</g>
		<g>
			<path fill="#333333" d="M47.588-21H2.412C1.631-21,1-21.895,1-23c0-1.104,0.631-2,1.412-2h45.176C48.369-25,49-24.104,49-23
				C49-21.895,48.369-21,47.588-21z"/>
		</g>
	</g>
</g>
<g>
	<g>
		<path fill="#333333" d="M165-91c-5.398,0-24-15.912-24-28.031C141-130.042,151.766-139,165-139s24,8.958,24,19.969
			C189-106.912,170.398-91,165-91z M165-136.046c-11.291,0-20.476,7.633-20.476,17.015c0,11.148,17.572,24.619,20.476,25.073
			c2.905-0.454,20.476-13.925,20.476-25.073C185.476-128.413,176.291-136.046,165-136.046z M165-106.827
			c-7.638,0-13.853-5.21-13.853-11.613s6.215-11.612,13.853-11.612c7.638,0,13.853,5.209,13.853,11.612S172.638-106.827,165-106.827
			z M165-127.098c-5.695,0-10.329,3.884-10.329,8.658c0,4.775,4.634,8.659,10.329,8.659s10.329-3.884,10.329-8.659
			C175.329-123.214,170.695-127.098,165-127.098z"/>
	</g>
</g>
<path fill="#2EB88A" d="M113.957,6.16c-1.124-0.912-2.701-0.629-3.515,0.632l-19.443,30.08L79.501,20.428
	c-0.858-1.227-2.443-1.441-3.535-0.483c-1.096,0.959-1.288,2.731-0.432,3.956l13.56,19.392c0.017,0.025,0.04,0.041,0.058,0.065
	c0.075,0.101,0.16,0.192,0.249,0.282c0.052,0.053,0.102,0.109,0.157,0.156c0.016,0.013,0.027,0.03,0.044,0.043
	c0.12,0.097,0.245,0.178,0.373,0.248c0.025,0.014,0.051,0.022,0.077,0.035c0.133,0.067,0.269,0.119,0.408,0.158
	c0.041,0.011,0.08,0.022,0.121,0.031c0.164,0.037,0.329,0.062,0.495,0.062c0,0,0.001,0,0.002,0s0.002,0,0.002,0
	c0.174,0,0.346-0.027,0.518-0.067c0.043-0.01,0.085-0.023,0.128-0.036c0.139-0.041,0.276-0.096,0.409-0.165
	c0.032-0.016,0.065-0.029,0.096-0.046c0.139-0.08,0.274-0.172,0.401-0.284c0.013-0.011,0.022-0.025,0.034-0.037
	c0.046-0.042,0.086-0.093,0.129-0.139c0.099-0.104,0.192-0.212,0.273-0.33c0.016-0.023,0.037-0.039,0.052-0.063l21.404-33.114
	C115.337,8.834,115.085,7.072,113.957,6.16z"/>
<g>
	<path fill="#2EB88A" d="M179.17,275.956h-1.988c-0.288-1.4-1.534-2.456-3.025-2.456h-18.313c-1.49,0-2.737,1.057-3.024,2.456
		h-1.988c-3.137,0-5.688,2.539-5.688,5.66v32.224c0,3.121,2.552,5.66,5.688,5.66h28.338c3.136,0,5.687-2.539,5.687-5.66v-32.224
		C184.857,278.495,182.305,275.956,179.17,275.956z M155.601,276.572c0-0.133,0.109-0.243,0.243-0.243h18.313
		c0.135,0,0.244,0.109,0.244,0.243v2.213v5.044c0,0.133-0.109,0.242-0.244,0.242h-18.313c-0.133,0-0.243-0.109-0.243-0.242v-5.044
		V276.572z M182.013,313.84c0,1.561-1.275,2.83-2.843,2.83h-28.338c-1.568,0-2.844-1.27-2.844-2.83v-32.224
		c0-1.561,1.276-2.83,2.844-2.83h1.925v5.044c0,1.694,1.385,3.072,3.087,3.072h18.313c1.703,0,3.088-1.378,3.088-3.072v-5.044h1.925
		c1.568,0,2.843,1.27,2.843,2.83V313.84z"/>
	<path fill="#2EB88A" d="M175.822,292.214h-21.643c-0.785,0-1.422,0.633-1.422,1.415c0,0.782,0.637,1.415,1.422,1.415h21.643
		c0.785,0,1.422-0.633,1.422-1.415C177.244,292.847,176.608,292.214,175.822,292.214z"/>
	<path fill="#2EB88A" d="M175.822,300.469h-21.643c-0.785,0-1.422,0.633-1.422,1.415c0,0.782,0.637,1.415,1.422,1.415h21.643
		c0.785,0,1.422-0.633,1.422-1.415C177.244,301.102,176.608,300.469,175.822,300.469z"/>
	<path fill="#2EB88A" d="M175.822,308.724h-21.643c-0.785,0-1.422,0.633-1.422,1.415s0.637,1.415,1.422,1.415h21.643
		c0.785,0,1.422-0.633,1.422-1.415S176.608,308.724,175.822,308.724z"/>
</g>
<g>
	<path fill="#BDBBBB" d="M249.17,275.956h-1.988c-0.288-1.4-1.534-2.456-3.025-2.456h-18.313c-1.49,0-2.737,1.057-3.024,2.456
		h-1.988c-3.137,0-5.688,2.539-5.688,5.66v32.224c0,3.121,2.552,5.66,5.688,5.66h28.338c3.136,0,5.687-2.539,5.687-5.66v-32.224
		C254.857,278.495,252.305,275.956,249.17,275.956z M225.601,276.572c0-0.133,0.109-0.243,0.243-0.243h18.313
		c0.135,0,0.244,0.109,0.244,0.243v2.213v5.044c0,0.133-0.109,0.242-0.244,0.242h-18.313c-0.133,0-0.243-0.109-0.243-0.242v-5.044
		V276.572z M252.013,313.84c0,1.561-1.275,2.83-2.843,2.83h-28.338c-1.568,0-2.844-1.27-2.844-2.83v-32.224
		c0-1.561,1.276-2.83,2.844-2.83h1.925v5.044c0,1.694,1.385,3.072,3.087,3.072h18.313c1.703,0,3.088-1.378,3.088-3.072v-5.044h1.925
		c1.568,0,2.843,1.27,2.843,2.83V313.84z"/>
	<path fill="#BDBBBB" d="M245.822,292.214h-21.643c-0.785,0-1.422,0.633-1.422,1.415c0,0.782,0.637,1.415,1.422,1.415h21.643
		c0.785,0,1.422-0.633,1.422-1.415C247.244,292.847,246.608,292.214,245.822,292.214z"/>
	<path fill="#BDBBBB" d="M245.822,300.469h-21.643c-0.785,0-1.422,0.633-1.422,1.415c0,0.782,0.637,1.415,1.422,1.415h21.643
		c0.785,0,1.422-0.633,1.422-1.415C247.244,301.102,246.608,300.469,245.822,300.469z"/>
	<path fill="#BDBBBB" d="M245.822,308.724h-21.643c-0.785,0-1.422,0.633-1.422,1.415s0.637,1.415,1.422,1.415h21.643
		c0.785,0,1.422-0.633,1.422-1.415S246.608,308.724,245.822,308.724z"/>
</g>
<g>
	<g>
		<g>
			<path fill="#333333" d="M90.168,223.389c0.862-1.149,2.533-1.958,4.49-1.958c3.393,0,5.561,2.062,5.561,4.725
				c0,2.375-1.645,4.359-4.83,5.064l-0.261,2.767h-1.436l-0.469-4.229c3.183-0.522,4.567-1.932,4.567-3.55
				c0-1.592-1.201-2.767-3.21-2.767c-1.227,0-2.142,0.365-2.637,1.044c-0.027,0.026-0.052,0.052-0.052,0.078
				c0.418,0.131,0.679,0.626,0.679,1.096c0,0.809-0.522,1.436-1.357,1.436c-0.888,0-1.723-0.731-1.723-1.827
				C89.489,224.59,89.724,223.964,90.168,223.389z M92.752,237.433c0-0.94,0.758-1.723,1.671-1.723c0.94,0,1.697,0.783,1.697,1.723
				c0,0.94-0.758,1.697-1.697,1.697C93.509,239.13,92.752,238.373,92.752,237.433z"/>
		</g>
	</g>
	<g>
		<path fill="#333333" d="M95,253c-12.683,0-23-10.317-23-23c0-12.683,10.317-23,23-23s23,10.317,23,23
			C118,242.683,107.683,253,95,253z M95,209.486c-11.311,0-20.514,9.202-20.514,20.514c0,11.311,9.203,20.514,20.514,20.514
			s20.514-9.202,20.514-20.514C115.514,218.689,106.311,209.486,95,209.486z"/>
	</g>
</g>
<g>
	<g>
		<g>
			<path fill="#2EB88A" d="M160.168,223.389c0.862-1.149,2.533-1.958,4.49-1.958c3.393,0,5.561,2.062,5.561,4.725
				c0,2.375-1.645,4.359-4.83,5.064l-0.261,2.767h-1.436l-0.469-4.229c3.183-0.522,4.567-1.932,4.567-3.55
				c0-1.592-1.201-2.767-3.21-2.767c-1.227,0-2.142,0.365-2.637,1.044c-0.027,0.026-0.052,0.052-0.052,0.078
				c0.418,0.131,0.679,0.626,0.679,1.096c0,0.809-0.522,1.436-1.357,1.436c-0.888,0-1.723-0.731-1.723-1.827
				C159.489,224.59,159.724,223.964,160.168,223.389z M162.752,237.433c0-0.94,0.758-1.723,1.671-1.723
				c0.94,0,1.697,0.783,1.697,1.723c0,0.94-0.758,1.697-1.697,1.697C163.509,239.13,162.752,238.373,162.752,237.433z"/>
		</g>
	</g>
	<g>
		<path fill="#2EB88A" d="M165,253c-12.683,0-23-10.317-23-23s10.317-23,23-23s23,10.317,23,23S177.683,253,165,253z M165,209.486
			c-11.311,0-20.514,9.202-20.514,20.514s9.203,20.514,20.514,20.514s20.514-9.202,20.514-20.514S176.311,209.486,165,209.486z"/>
	</g>
</g>
<g>
	<g>
		<path fill="#2EB88A" d="M188.304,136.379c-0.339-1.103-1.125-2.006-2.159-2.489c-0.522-0.244-1.098-0.39-1.711-0.39h-15.573
			c-1.548,0-3.373,0.775-4.419,1.865l-21.812,21.997c-1.529,1.593-1.504,4.161,0.059,5.726l16.237,16.215
			c0.772,0.771,1.801,1.196,2.901,1.196c1.065,0,2.077-0.406,2.868-1.164l10.568-10.472l2.334-2.313l9.005-8.923
			c1.117-1.068,1.898-2.894,1.898-4.44v-15.628C188.5,137.147,188.419,136.755,188.304,136.379z M185.429,139.278v13.915
			c0,0.641-0.421,1.627-0.894,2.079l-9.152,9.068l-2.334,2.313l-10.445,10.349c-0.148,0.142-0.354,0.212-0.56,0.212
			c-0.041,0-0.078-0.016-0.118-0.022c-0.033,0.004-0.065,0.017-0.098,0.017c-0.212,0-0.425-0.075-0.575-0.225l-16.239-16.216
			c-0.304-0.304-0.309-0.823-0.02-1.124l21.792-21.976c0.446-0.462,1.435-0.884,2.075-0.884h14.416h1.157l0.021,0.004h0.196
			c0.429,0,0.779,0.349,0.779,0.778V139.278z"/>
		<path fill="#2EB88A" d="M182.256,142.461c-0.184-1.186-1.035-2.142-2.161-2.487c-0.289-0.089-0.588-0.15-0.906-0.15
			c-1.717,0-3.114,1.395-3.114,3.11c0,0.327,0.065,0.637,0.159,0.934c0.356,1.12,1.322,1.96,2.513,2.131
			c0.146,0.021,0.291,0.045,0.442,0.045c1.717,0,3.115-1.395,3.115-3.11C182.304,142.773,182.28,142.617,182.256,142.461z
			 M177.632,142.935c0-0.212,0.044-0.414,0.121-0.598c0.156-0.372,0.452-0.67,0.822-0.829c0.189-0.081,0.396-0.128,0.614-0.128
			c0.859,0,1.558,0.698,1.558,1.555s-0.698,1.555-1.558,1.555S177.632,143.792,177.632,142.935z"/>
	</g>
</g>
<g>
	<g>
		<path fill="#BDBBBB" d="M258.304,136.379c-0.339-1.103-1.125-2.006-2.159-2.489c-0.522-0.244-1.098-0.39-1.711-0.39h-15.573
			c-1.548,0-3.373,0.775-4.419,1.865l-21.812,21.997c-1.529,1.593-1.504,4.161,0.059,5.726l16.237,16.215
			c0.772,0.771,1.801,1.196,2.901,1.196c1.065,0,2.077-0.406,2.868-1.164l10.568-10.472l2.334-2.313l9.005-8.923
			c1.117-1.068,1.898-2.894,1.898-4.44v-15.628C258.5,137.147,258.419,136.755,258.304,136.379z M255.429,139.278v13.915
			c0,0.641-0.421,1.627-0.894,2.079l-9.152,9.068l-2.334,2.313l-10.445,10.349c-0.148,0.142-0.354,0.212-0.56,0.212
			c-0.041,0-0.078-0.016-0.118-0.022c-0.033,0.004-0.065,0.017-0.098,0.017c-0.212,0-0.425-0.075-0.575-0.225l-16.239-16.216
			c-0.304-0.304-0.309-0.823-0.02-1.124l21.792-21.976c0.446-0.462,1.435-0.884,2.075-0.884h14.416h1.157l0.021,0.004h0.196
			c0.429,0,0.779,0.349,0.779,0.778V139.278z"/>
		<path fill="#BDBBBB" d="M252.256,142.461c-0.184-1.186-1.035-2.142-2.161-2.487c-0.289-0.089-0.588-0.15-0.906-0.15
			c-1.717,0-3.114,1.395-3.114,3.11c0,0.327,0.065,0.637,0.159,0.934c0.356,1.12,1.322,1.96,2.513,2.131
			c0.146,0.021,0.291,0.045,0.442,0.045c1.717,0,3.115-1.395,3.115-3.11C252.304,142.773,252.28,142.617,252.256,142.461z
			 M247.632,142.935c0-0.212,0.044-0.414,0.121-0.598c0.156-0.372,0.452-0.67,0.822-0.829c0.189-0.081,0.396-0.128,0.614-0.128
			c0.859,0,1.558,0.698,1.558,1.555s-0.698,1.555-1.558,1.555S247.632,143.792,247.632,142.935z"/>
	</g>
</g>
<g>
	<g>
		<path fill="#333333" d="M95,112c-5.398,0-24-15.912-24-28.031C71,72.958,81.766,64,95,64s24,8.958,24,19.969
			C119,96.088,100.398,112,95,112z M95,66.954c-11.291,0-20.476,7.633-20.476,17.015c0,11.148,17.572,24.619,20.476,25.073
			c2.905-0.454,20.476-13.925,20.476-25.073C115.476,74.587,106.291,66.954,95,66.954z M95,96.173
			c-7.638,0-13.853-5.21-13.853-11.613S87.362,72.948,95,72.948s13.853,5.209,13.853,11.612S102.638,96.173,95,96.173z M95,75.902
			c-5.695,0-10.329,3.884-10.329,8.658c0,4.775,4.634,8.659,10.329,8.659c5.695,0,10.329-3.884,10.329-8.659
			C105.329,79.786,100.695,75.902,95,75.902z"/>
	</g>
</g>
<g>
	<g>
		<path fill="#2EB88A" d="M165,112c-5.398,0-24-15.912-24-28.031C141,72.958,151.766,64,165,64c13.234,0,24,8.958,24,19.969
			C189,96.088,170.398,112,165,112z M165,66.954c-11.291,0-20.476,7.633-20.476,17.015c0,11.148,17.572,24.619,20.476,25.073
			c2.905-0.454,20.476-13.925,20.476-25.073C185.476,74.587,176.291,66.954,165,66.954z M165,96.173
			c-7.638,0-13.853-5.21-13.853-11.613S157.362,72.948,165,72.948c7.638,0,13.853,5.209,13.853,11.612S172.638,96.173,165,96.173z
			 M165,75.902c-5.695,0-10.329,3.884-10.329,8.658c0,4.775,4.634,8.659,10.329,8.659c5.695,0,10.329-3.884,10.329-8.659
			C175.329,79.786,170.695,75.902,165,75.902z"/>
	</g>
</g>
<g>
	<g>
		<path fill="#BDBBBB" d="M235,112c-5.398,0-24-15.912-24-28.031C211,72.958,221.766,64,235,64c13.234,0,24,8.958,24,19.969
			C259,96.088,240.398,112,235,112z M235,66.954c-11.291,0-20.476,7.633-20.476,17.015c0,11.148,17.572,24.619,20.476,25.073
			c2.905-0.454,20.476-13.925,20.476-25.073C255.476,74.587,246.291,66.954,235,66.954z M235,96.173
			c-7.638,0-13.853-5.21-13.853-11.613S227.362,72.948,235,72.948c7.638,0,13.853,5.209,13.853,11.612S242.638,96.173,235,96.173z
			 M235,75.902c-5.695,0-10.329,3.884-10.329,8.658c0,4.775,4.634,8.659,10.329,8.659c5.695,0,10.329-3.884,10.329-8.659
			C245.329,79.786,240.695,75.902,235,75.902z"/>
	</g>
</g>
<g>
	<polygon fill="none" points="255.284,-131.043 255.245,-131.109 251.086,-135.259 249.809,-133.998 253.99,-129.749 	"/>
	<polygon fill="none" points="217.469,-96.274 222.655,-98.466 251.716,-127.386 247.504,-131.598 218.755,-102.85 216.418,-97.326 
		220.39,-100.136 	"/>
	<g>
		<polygon fill="none" points="218.755,-102.85 216.418,-97.326 220.39,-100.136 217.469,-96.274 222.655,-98.466 251.716,-127.386 
			247.504,-131.598 		"/>
		<polygon fill="none" points="255.245,-131.109 251.086,-135.259 249.809,-133.998 253.99,-129.749 255.284,-131.043 		"/>
		<path fill="#333333" d="M251.074-138.464l-3.319,3.308l0,0l-1.148,1.144l0.006,0.006l-29.622,29.704l-4.062,9.445l-0.189,0.44
			l-1.239,2.88l2.945-1.119l0.402-0.153l2.579-0.98l6.32-2.67l31.135-30.982l0.009,0.009l3.612-3.612L251.074-138.464z
			 M222.655-98.466l-5.187,2.192l2.921-3.862l-3.972,2.81l2.336-5.524l28.749-28.748l4.213,4.212L222.655-98.466z M253.99-129.749
			l-4.18-4.249l1.277-1.261l4.158,4.149l0.039,0.067L253.99-129.749z"/>
	</g>
</g>
<g>
	<polygon fill="none" points="112.418,-130.018 77.596,-130.018 95.007,-112.72 	"/>
	<polygon fill="none" points="72.7,-131.304 72.701,-131.304 72.701,-131.314 72.605,-131.298 72.671,-131.3 72.516,-131.283 
		72.7,-131.294 72.7,-131.296 72.7,-131.304 72.701,-131.301 72.701,-131.304 	"/>
	<path fill="#333333" d="M116.041-132.959L73.973-133c-0.805,0-1.459,0.65-1.459,1.45l-0.001,0.244l0.001,0.01l-0.004,0.159
		c-0.011,0.167-0.017,0.282,0.004,0.367v24.021v6v2.422c0,0.153,0.042,0.287,0.09,0.438c0.24,0.54,0.778,0.89,1.369,0.89h42.068
		c0.591,0,1.128-0.349,1.38-0.922c0.036-0.118,0.078-0.253,0.078-0.406v-2.422v-6v-24.759
		C117.5-132.309,116.846-132.959,116.041-132.959z M112.418-130.018L95.007-112.72l-17.412-17.298H112.418z M72.605-131.298
		l0.096-0.016c0,0.004,0,0.007,0,0.01l-0.001,0l0.001,0c0,0.001,0,0.002,0,0.003c0-0.001,0-0.002-0.001-0.003v0.008v0.003
		l-0.185,0.01l0.155-0.017L72.605-131.298z M114.582-100.75v0.768h-39.15v-0.768v-6v-21.202l18.514,18.393
		c0.566,0.562,1.555,0.564,2.122,0l18.514-18.393v21.202V-100.75z"/>
</g>
<path fill="#FFFFFF" d="M177.633,1.526c-0.701-0.701-1.836-0.701-2.537,0l-22.729,22.729c-0.701,0.701-0.701,1.836,0,2.537
	l21.682,21.683c0.35,0.35,0.81,0.526,1.269,0.526c0.459,0,0.918-0.175,1.269-0.526c0.701-0.701,0.701-1.836,0-2.537l-20.413-20.414
	l21.46-21.46C178.334,3.362,178.334,2.227,177.633,1.526z"/>
<path fill="#FFFFFF" d="M235,32.493c-4.132,0-7.493-3.361-7.493-7.493s3.361-7.493,7.493-7.493s7.493,3.361,7.493,7.493
	S239.132,32.493,235,32.493z M235,20.004c-2.755,0-4.996,2.24-4.996,4.996s2.24,4.996,4.996,4.996s4.996-2.24,4.996-4.996
	S237.755,20.004,235,20.004z"/>
<path fill="#FFFFFF" d="M231.326,47.501c-0.066,0-0.329-0.021-0.394-0.032l0,0c0,0-0.61-0.093-1.499-0.316
	c-0.896-0.224-1.477-0.432-1.477-0.432c-1.072-0.374-1.875-1.517-1.861-2.655l0.045-4.624c0.001-0.182-0.194-0.546-0.349-0.648
	l-1.282-0.946c-0.14-0.116-0.385-0.209-0.633-0.209l-4.558,1.393c-1.083,0.343-2.44-0.143-3.075-1.067l-1.498-2.5
	c-0.573-1.088-0.352-2.473,0.478-3.283l3.297-3.236c0.127-0.126,0.249-0.524,0.212-0.699l-0.235-1.584
	c-0.024-0.252-0.255-0.599-0.412-0.682l-4.1-2.148c-1.009-0.527-1.636-1.775-1.455-2.901l0,0c0,0,0.094-0.61,0.317-1.499
	c0.224-0.895,0.429-1.475,0.429-1.475c0.371-1.061,1.501-1.864,2.627-1.864l4.653,0.045c0.184,0,0.548-0.194,0.648-0.346
	l0.946-1.283c0.167-0.201,0.248-0.607,0.194-0.779l-1.378-4.413c-0.342-1.103,0.118-2.423,1.068-3.073l2.499-1.498
	c1.168-0.613,2.495-0.329,3.283,0.476l3.236,3.298c0.085,0.087,0.379,0.217,0.629,0.217l1.655-0.24
	c0.251-0.024,0.598-0.254,0.679-0.412l2.15-4.1c0.454-0.873,1.486-1.487,2.506-1.487c0.066,0,0.329,0.021,0.394,0.032l0,0
	c0,0,0.61,0.094,1.499,0.317c0.896,0.224,1.477,0.432,1.477,0.432c1.072,0.372,1.875,1.515,1.861,2.655l-0.045,4.624
	c-0.001,0.178,0.196,0.546,0.346,0.645l1.284,0.95c0.139,0.115,0.387,0.207,0.634,0.207l4.557-1.393
	c1.083-0.341,2.44,0.143,3.075,1.067l1.498,2.5c0.573,1.088,0.352,2.473-0.478,3.283l-3.297,3.234
	c-0.127,0.124-0.249,0.526-0.212,0.7l0.235,1.584c0.024,0.251,0.256,0.599,0.415,0.682l4.098,2.148
	c1.009,0.524,1.636,1.772,1.455,2.901c0,0.002-0.094,0.611-0.317,1.499c-0.224,0.893-0.429,1.475-0.429,1.475
	c-0.371,1.061-1.501,1.864-2.627,1.864l0,0l-4.653-0.045l0,0c-0.185,0-0.548,0.194-0.646,0.345l-0.948,1.284
	c-0.167,0.201-0.248,0.607-0.194,0.779l1.378,4.413c0.342,1.101-0.117,2.421-1.066,3.072l-2.501,1.499
	c-1.174,0.62-2.498,0.328-3.283-0.476l-3.236-3.299c-0.084-0.085-0.379-0.216-0.629-0.216l-1.655,0.24
	c-0.251,0.024-0.598,0.254-0.681,0.411l-2.149,4.1C233.378,46.889,232.347,47.501,231.326,47.501z M223.877,35.142
	c0.815,0,1.632,0.281,2.186,0.751l1.159,0.854c0.805,0.526,1.426,1.687,1.417,2.717l-0.045,4.628c0.006,0.082,0.12,0.24,0.195,0.273
	c0.027,0.01,0.513,0.179,1.253,0.365c0.74,0.185,1.253,0.267,1.278,0.271l0.007,0.001c0.099,0,0.255-0.087,0.294-0.149l2.149-4.098
	c0.478-0.915,1.572-1.643,2.603-1.733l1.436-0.213c0.109-0.026,0.306-0.045,0.51-0.045c0.889,0,1.836,0.378,2.411,0.964l3.238,3.302
	l0.282,0.043l2.37-1.42c-0.012-0.001,0.044-0.162,0.029-0.233l-1.377-4.408c-0.31-0.993-0.046-2.286,0.623-3.073l0.854-1.159
	c0.518-0.796,1.668-1.417,2.694-1.417l4.652,0.045c0.082-0.006,0.24-0.12,0.273-0.195c0.009-0.023,0.177-0.512,0.363-1.253
	c0.185-0.743,0.268-1.255,0.272-1.281c0.007-0.083-0.078-0.256-0.148-0.3l-4.098-2.148c-0.916-0.481-1.645-1.576-1.734-2.604
	l-0.213-1.435c-0.199-0.934,0.182-2.194,0.918-2.92l3.302-3.239c0.045-0.052,0.071-0.215,0.045-0.281l-1.421-2.37
	c0.018,0.032-0.101-0.032-0.209-0.032l-4.432,1.378c-0.973,0.304-2.304,0.03-3.073-0.621l-1.16-0.857
	c-0.804-0.522-1.426-1.682-1.417-2.715l0.045-4.628c-0.006-0.082-0.118-0.24-0.194-0.273c-0.028-0.01-0.515-0.179-1.254-0.365
	c-0.743-0.185-1.255-0.268-1.281-0.272c-0.051-0.015-0.26,0.084-0.299,0.148l-2.149,4.099c-0.477,0.913-1.572,1.643-2.603,1.733
	l-1.436,0.213c-0.109,0.026-0.306,0.045-0.51,0.045c-0.89,0-1.837-0.379-2.412-0.966l-3.237-3.299l-0.281-0.044l-2.371,1.421
	c0.012,0.002-0.044,0.162-0.029,0.233l1.377,4.408c0.31,0.993,0.046,2.286-0.623,3.073l-0.854,1.159
	c-0.52,0.796-1.671,1.417-2.697,1.417l-4.649-0.045c-0.082,0.006-0.24,0.12-0.273,0.195c-0.009,0.024-0.177,0.512-0.363,1.253
	c-0.185,0.743-0.268,1.255-0.272,1.281c-0.007,0.083,0.079,0.257,0.149,0.301l4.097,2.147c0.915,0.478,1.645,1.573,1.734,2.604
	l0.213,1.435c0.199,0.935-0.182,2.195-0.92,2.92l-3.3,3.239c-0.045,0.052-0.071,0.215-0.045,0.281l1.421,2.37
	c-0.017-0.027,0.101,0.033,0.209,0.032l4.432-1.378C223.261,35.185,223.56,35.142,223.877,35.142z"/>
<g>
	
		<line fill="none" stroke="#333333" stroke-width="2.2857" stroke-linecap="round" stroke-miterlimit="10" x1="244.337" y1="-54.452" x2="224.852" y2="-34.967"/>
	
		<line fill="none" stroke="#333333" stroke-width="2.2857" stroke-linecap="round" stroke-miterlimit="10" x1="224.852" y1="-54.452" x2="244.337" y2="-34.967"/>
	
		<circle fill="none" stroke="#333333" stroke-width="2.2857" stroke-linecap="round" stroke-miterlimit="10" cx="235" cy="-45" r="20"/>
</g>
<g>
	<path fill="#FFFFFF" d="M45.339,31.314c-0.975,0-1.769,0.794-1.769,1.769v12.38H6.429v-12.38c0-0.975-0.794-1.769-1.769-1.769
		s-1.769,0.794-1.769,1.769v14.149C2.892,48.206,3.686,49,4.661,49h40.679c0.975,0,1.769-0.794,1.769-1.769V33.082
		C47.108,32.107,46.314,31.314,45.339,31.314z"/>
	<path fill="#FFFFFF" d="M36.157,11.505L26.152,1.5c-0.668-0.667-1.833-0.667-2.501,0L13.646,11.505
		c-0.335,0.335-0.519,0.779-0.519,1.251c0,0.472,0.185,0.916,0.519,1.25c0.668,0.666,1.831,0.668,2.501,0l6.986-6.986V28.93
		c0,0.975,0.794,1.769,1.769,1.769c0.473,0,0.917-0.184,1.25-0.517c0.266-0.267,0.432-0.604,0.491-0.969L26.67,7.021l6.986,6.986
		c0.668,0.667,1.833,0.667,2.5,0c0.335-0.335,0.519-0.779,0.519-1.25C36.675,12.284,36.491,11.84,36.157,11.505z"/>
</g>
</svg>
