<?xml version="1.0" encoding="utf-8"?>
<!-- Generator: Adobe Illustrator 18.0.0, SVG Export Plug-In . SVG Version: 6.00 Build 0)  -->
<!DOCTYPE svg PUBLIC "-//W3C//DTD SVG 1.1//EN" "http://www.w3.org/Graphics/SVG/1.1/DTD/svg11.dtd">
<svg version="1.1" id="Layer_1" xmlns="http://www.w3.org/2000/svg" xmlns:xlink="http://www.w3.org/1999/xlink" x="0px" y="0px"
	 viewBox="0 0 50 50" enable-background="new 0 0 50 50" xml:space="preserve">
<g>
	<polygon fill="none" points="45.284,8.957 45.245,8.891 41.086,4.741 39.809,6.002 43.99,10.251 	"/>
	<polygon fill="none" points="7.469,43.726 12.655,41.534 41.716,12.614 37.504,8.402 8.755,37.15 6.418,42.674 10.39,39.864 	"/>
	<g>
		<polygon fill="none" points="8.755,37.15 6.418,42.674 10.39,39.864 7.469,43.726 12.655,41.534 41.716,12.614 37.504,8.402 		"/>
		<polygon fill="none" points="45.245,8.891 41.086,4.741 39.809,6.002 43.99,10.251 45.284,8.957 		"/>
		<path fill="#333333" d="M41.074,1.536l-3.319,3.308l0,0l-1.148,1.144l0.006,0.006L6.99,35.698l-4.062,9.445l-0.189,0.44
			L1.5,48.464l2.945-1.119l0.401-0.153l2.579-0.98l6.32-2.67L44.879,12.56l0.009,0.009L48.5,8.957L41.074,1.536z M12.655,41.534
			l-5.187,2.192l2.921-3.862l-3.972,2.81l2.336-5.524L37.504,8.402l4.213,4.212L12.655,41.534z M43.99,10.251l-4.18-4.249
			l1.277-1.261l4.158,4.149l0.039,0.067L43.99,10.251z"/>
	</g>
</g>
</svg>
