<?xml version="1.0" encoding="utf-8"?>
<!-- Generator: Adobe Illustrator 18.0.0, SVG Export Plug-In . SVG Version: 6.00 Build 0)  -->
<!DOCTYPE svg PUBLIC "-//W3C//DTD SVG 1.1//EN" "http://www.w3.org/Graphics/SVG/1.1/DTD/svg11.dtd">
<svg version="1.1" id="Layer_1" xmlns="http://www.w3.org/2000/svg" xmlns:xlink="http://www.w3.org/1999/xlink" x="0px" y="0px"
	 viewBox="0 0 50 50" enable-background="new 0 0 50 50" xml:space="preserve">
<g>
	<linearGradient id="SVGID_1_" gradientUnits="userSpaceOnUse" x1="8.3055" y1="25" x2="41.6945" y2="25">
		<stop  offset="0" style="stop-color:#007EE9"/>
		<stop  offset="1" style="stop-color:#449EFF"/>
	</linearGradient>
	<path fill="url(#SVGID_1_)" d="M25,42.3C25,42.3,25,42.3,25,42.3c-1.6,0-3-0.2-4.3-0.5c-0.3-0.1-0.6-0.4-0.7-0.7
		c-0.4-1.8-0.6-3.7-0.5-5.5c-0.6-0.3-1.2-0.7-1.6-1c-0.6-0.4-1.1-0.9-1.5-1.3c-1.7,0.6-3.6,0.8-5.5,0.8l-0.2,0
		c-0.3,0-0.6-0.2-0.8-0.5c-0.7-1.2-1.3-2.5-1.7-4c-0.1-0.3,0-0.7,0.3-1c1.4-1.3,2.9-2.3,4.5-3.1c0-0.6,0-1.2,0-1.9
		c0.1-0.7,0.2-1.4,0.4-2C12.2,20.5,11,19,10,17.3c-0.2-0.3-0.2-0.7,0-0.9c0.8-1.3,1.7-2.5,2.6-3.4c0.2-0.3,0.6-0.3,1-0.2
		c1.8,0.6,3.5,1.4,4.9,2.3c0.5-0.3,1.1-0.6,1.7-0.9c0.6-0.3,1.2-0.5,1.9-0.6c0.4-1.8,1.1-3.6,2.1-5.3c0.2-0.3,0.5-0.5,0.8-0.5
		c1.6,0,3,0.2,4.2,0.5c0.3,0.1,0.6,0.4,0.7,0.7c0.4,1.8,0.6,3.7,0.5,5.5c0.6,0.3,1.2,0.7,1.6,1c0.6,0.4,1.1,0.9,1.5,1.3
		c1.7-0.6,3.6-0.8,5.5-0.8l0.2,0c0.3,0,0.6,0.2,0.8,0.5c0.7,1.2,1.3,2.5,1.7,4c0.1,0.3,0,0.7-0.3,1c-1.4,1.3-2.9,2.3-4.5,3.1
		c0,0.6,0,1.2,0,1.9c-0.1,0.7-0.2,1.4-0.4,2c1.4,1.3,2.6,2.8,3.5,4.5c0.2,0.3,0.2,0.7,0,0.9c-0.8,1.3-1.7,2.5-2.6,3.4
		c-0.3,0.3-0.6,0.3-1,0.2C34.6,36.8,33,36,31.5,35c-0.5,0.3-1,0.6-1.7,0.9c-0.6,0.3-1.2,0.5-1.9,0.6c-0.4,1.8-1.1,3.6-2.1,5.3
		C25.6,42.2,25.3,42.3,25,42.3z M21.8,40.1c0.8,0.2,1.7,0.3,2.7,0.3c0.8-1.5,1.4-3.2,1.7-4.8c0.1-0.4,0.4-0.7,0.7-0.8
		c0.8-0.2,1.5-0.4,2.1-0.7c0.8-0.4,1.4-0.7,1.9-1.1c0.3-0.3,0.8-0.3,1.1,0c1.3,0.9,2.8,1.7,4.4,2.3c0.6-0.6,1.1-1.4,1.6-2.2
		c-0.9-1.5-2-2.8-3.3-3.9c-0.3-0.3-0.4-0.7-0.3-1c0.2-0.6,0.4-1.3,0.5-2.2c0.1-0.8,0.1-1.5,0-2.2c0-0.4,0.2-0.8,0.5-1
		c1.5-0.7,2.9-1.6,4.2-2.7c-0.3-0.9-0.6-1.7-1.1-2.5c-1.8,0-3.5,0.4-5.1,0.9c-0.4,0.1-0.8,0-1-0.3c-0.4-0.5-0.9-1-1.6-1.5
		c-0.5-0.4-1.1-0.7-1.9-1.1c-0.4-0.2-0.6-0.5-0.5-0.9c0.1-1.6,0.1-3.3-0.3-5c-0.8-0.2-1.7-0.3-2.7-0.3c-0.8,1.5-1.4,3.2-1.7,4.8
		c-0.1,0.4-0.4,0.7-0.7,0.8c-0.8,0.2-1.5,0.4-2.1,0.7c-0.8,0.3-1.4,0.7-1.9,1.1c-0.3,0.3-0.8,0.3-1.1,0c-1.3-0.9-2.8-1.7-4.4-2.3
		c-0.6,0.6-1.1,1.4-1.6,2.2c0.9,1.5,2,2.8,3.3,3.9c0.3,0.3,0.4,0.7,0.3,1c-0.2,0.6-0.4,1.3-0.5,2.2c-0.1,0.8-0.1,1.5,0,2.2
		c0,0.4-0.2,0.8-0.5,1c-1.5,0.7-2.9,1.6-4.2,2.7c0.3,0.9,0.6,1.7,1.1,2.5c1.8,0,3.5-0.3,5.1-0.9c0.4-0.1,0.8,0,1,0.3
		c0.4,0.5,0.9,1,1.6,1.5c0.5,0.4,1.1,0.7,1.9,1.1c0.4,0.2,0.6,0.5,0.5,0.9C21.4,36.8,21.5,38.5,21.8,40.1z M25,30.6
		c-1.2,0-2.4-0.4-3.3-1.1c-1.6-1.1-2.5-3.1-2.3-5.1c0.2-2,1.6-3.8,3.3-4.5c0.7-0.3,1.4-0.5,2.2-0.5c1.2,0,2.4,0.4,3.3,1.1
		c1.6,1.1,2.5,3.1,2.3,5.1c-0.2,2-1.6,3.8-3.3,4.5C26.6,30.4,25.8,30.6,25,30.6z M25,21.3c-0.5,0-1,0.1-1.5,0.3
		c-1.2,0.5-2.1,1.7-2.2,3c-0.1,1.3,0.5,2.7,1.5,3.4c1,0.8,2.6,0.9,3.7,0.4c1.2-0.5,2.1-1.7,2.2-3c0.1-1.3-0.5-2.7-1.5-3.4
		C26.6,21.5,25.8,21.3,25,21.3z"/>
</g>
</svg>
