<?xml version="1.0" encoding="utf-8"?>
<!-- Generator: Adobe Illustrator 18.0.0, SVG Export Plug-In . SVG Version: 6.00 Build 0)  -->
<!DOCTYPE svg PUBLIC "-//W3C//DTD SVG 1.1//EN" "http://www.w3.org/Graphics/SVG/1.1/DTD/svg11.dtd">
<svg version="1.1" id="Layer_1" xmlns="http://www.w3.org/2000/svg" xmlns:xlink="http://www.w3.org/1999/xlink" x="0px" y="0px"
	 viewBox="0 0 50 50" enable-background="new 0 0 50 50" xml:space="preserve">
<g>
	<g>
		<path fill="#FFBF4D" d="M25.1,49.8c-0.6,0-1.3,0-2.1-0.1c-0.4,0-0.7-0.3-0.8-0.7c-0.5-1.8-1-3.7-1.2-5.6c-0.6-0.1-1.1-0.3-1.7-0.5
			l-0.5-0.2c-0.4-0.1-0.8-0.3-1.2-0.5c-1.4,1.3-3,2.6-4.7,3.6c-0.3,0.2-0.7,0.2-1,0c-0.9-0.6-1.9-1.3-3-2.2c-0.3-0.3-0.4-0.7-0.3-1
			c0.7-2,1.4-3.6,2.3-5.2c-0.4-0.5-0.8-0.9-1.1-1.4c-0.3-0.4-0.6-0.9-0.9-1.4c0,0,0-0.1-0.1-0.1c-2,0.3-4,0.3-5.9,0.2
			c-0.4,0-0.7-0.3-0.8-0.6c-0.5-1.2-0.9-2.4-1.1-3.6c-0.1-0.4,0.1-0.8,0.4-1c1.5-1,3.2-2,4.9-2.9c0-0.3,0-0.6,0-0.9
			c0-0.3,0-0.5,0-0.8c0,0,0-0.1,0-0.1c0-0.3,0-0.5,0-0.8c0-0.3,0-0.6,0-1c-1.8-1-3.4-2.1-4.9-3.3C1,19.7,0.9,19.3,1,18.9
			c0.3-1.2,0.7-2.3,1.1-3.3l0.1-0.2C2.3,15,2.6,14.8,3,14.8c1.9,0,3.9,0.2,5.7,0.6c0,0,0-0.1,0.1-0.1c0.3-0.5,0.6-1,1-1.4
			c0.3-0.4,0.7-0.9,1.1-1.4C10,10.8,9.4,9,8.8,6.9c-0.1-0.4,0-0.8,0.3-1l0.1-0.1c0.9-0.7,1.8-1.4,2.9-2c0.3-0.2,0.7-0.2,1,0.1
			c1.5,1.1,3,2.4,4.3,3.8c0.4-0.2,0.8-0.3,1.2-0.5L19.1,7c0.6-0.2,1.2-0.3,1.8-0.5c0.4-2,0.9-3.9,1.6-5.7c0.1-0.3,0.5-0.6,0.8-0.6
			c1.1-0.1,2.2-0.1,3.7,0c0.4,0,0.7,0.3,0.8,0.7c0.5,1.8,1,3.7,1.2,5.6c0.6,0.1,1.1,0.3,1.7,0.5l0.5,0.2c0.4,0.1,0.8,0.3,1.2,0.5
			c1.4-1.3,3-2.6,4.7-3.6c0.3-0.2,0.7-0.2,1,0c0.9,0.6,1.9,1.3,3,2.2c0.3,0.3,0.4,0.7,0.3,1.1c-0.7,2-1.4,3.7-2.3,5.2
			c0.4,0.5,0.8,0.9,1.1,1.4c0.3,0.4,0.6,0.9,0.9,1.4c0,0,0,0.1,0.1,0.1c2-0.3,4-0.3,5.9-0.2c0.4,0,0.7,0.3,0.8,0.6
			c0.5,1.2,0.9,2.4,1.1,3.6c0.1,0.4-0.1,0.8-0.4,1c-1.5,1-3.2,2-4.9,2.9c0,0.3,0,0.6,0,0.9c0,0.3,0,0.5,0,0.8c0,0,0,0.1,0,0.2
			c0,0.3,0,0.5,0,0.8c0,0.3,0,0.6,0,0.9c1.8,1,3.4,2.1,4.9,3.3c0.3,0.2,0.4,0.6,0.3,0.9c-0.3,1.1-0.7,2.2-1.1,3.3l-0.1,0.2
			c-0.1,0.4-0.5,0.6-0.9,0.6c-1.9,0-3.9-0.2-5.7-0.6c0,0,0,0.1-0.1,0.1c-0.3,0.5-0.6,1-1,1.4c-0.3,0.4-0.6,0.9-1.1,1.4
			c0.8,1.7,1.5,3.5,2,5.6c0.1,0.4,0,0.8-0.3,1l-0.2,0.1c-0.9,0.7-1.8,1.4-2.9,2c-0.3,0.2-0.7,0.2-1-0.1c-1.5-1.1-3-2.4-4.3-3.8
			c-0.4,0.2-0.8,0.3-1.2,0.5L30.9,43c-0.6,0.2-1.2,0.3-1.8,0.5c-0.4,2-0.9,3.9-1.6,5.7c-0.1,0.3-0.4,0.6-0.8,0.6
			C26.1,49.8,25.6,49.8,25.1,49.8z M23.7,47.9c0.8,0,1.5,0.1,2.2,0c0.6-1.7,1.1-3.5,1.4-5.4c0.1-0.4,0.4-0.7,0.8-0.8
			c0.7-0.1,1.5-0.3,2.2-0.5l0.4-0.1c0.6-0.2,1.1-0.4,1.6-0.7c0.4-0.2,0.9-0.1,1.2,0.2c1.2,1.3,2.6,2.6,4,3.7
			c0.6-0.4,1.2-0.8,1.7-1.3c-0.6-1.9-1.2-3.6-2-5.2C37,37.4,37,37,37.3,36.7c0.6-0.6,1-1.2,1.4-1.7c0.3-0.4,0.6-0.8,0.8-1.3
			c0.1-0.2,0.3-0.5,0.4-0.7c0.2-0.3,0.6-0.5,1-0.4c1.7,0.4,3.5,0.6,5.4,0.6c0.3-0.7,0.5-1.4,0.7-2.1c-1.4-1.1-3-2.1-4.7-3
			c-0.4-0.2-0.6-0.6-0.5-1c0.1-0.4,0.1-0.9,0.1-1.4c0-0.3,0-0.5,0-0.8c0-0.3,0-0.5,0-0.8c0-0.5,0-0.9-0.1-1.4
			c-0.1-0.4,0.1-0.9,0.5-1c1.7-0.8,3.3-1.7,4.7-2.6c-0.2-0.7-0.4-1.4-0.7-2.1c-1.8-0.1-3.7,0-5.5,0.3c-0.4,0.1-0.7-0.1-1-0.4
			c-0.1-0.2-0.3-0.5-0.4-0.7c-0.3-0.4-0.5-0.8-0.8-1.2c-0.4-0.6-0.9-1.2-1.5-1.8C37,13,37,12.5,37.2,12.2c0.9-1.5,1.6-3.1,2.3-4.9
			c-0.6-0.5-1.2-0.9-1.7-1.3c-1.6,1.1-3,2.2-4.3,3.5c-0.3,0.3-0.8,0.4-1.1,0.2c-0.5-0.3-1-0.5-1.6-0.7l-0.5-0.2
			c-0.6-0.2-1.4-0.4-2.1-0.5c-0.4-0.1-0.7-0.4-0.8-0.8c-0.2-1.8-0.6-3.6-1.1-5.3c-0.8,0-1.5-0.1-2.2,0c-0.6,1.7-1.1,3.5-1.4,5.4
			c-0.1,0.4-0.4,0.7-0.8,0.8c-0.7,0.1-1.5,0.3-2.2,0.5L19.3,9c-0.6,0.2-1.1,0.4-1.6,0.7c-0.4,0.2-0.9,0.1-1.2-0.2
			c-1.2-1.3-2.6-2.6-4-3.7C12,6.1,11.4,6.6,10.8,7c0.6,1.9,1.2,3.6,2,5.2c0.2,0.4,0.1,0.8-0.2,1.1c-0.6,0.6-1,1.2-1.4,1.7
			c-0.3,0.4-0.6,0.8-0.8,1.2c-0.1,0.2-0.3,0.5-0.4,0.7c-0.2,0.3-0.6,0.5-1,0.4c-1.7-0.4-3.5-0.6-5.4-0.6c-0.3,0.7-0.5,1.4-0.7,2.1
			c1.4,1.1,3,2.1,4.7,3c0.4,0.2,0.6,0.6,0.5,1c-0.1,0.4-0.1,0.9-0.1,1.4c0,0.3,0,0.5,0,0.8c0,0.3,0,0.5,0,0.8c0,0.5,0,1,0.1,1.4
			c0.1,0.4-0.1,0.9-0.5,1c-1.7,0.8-3.3,1.7-4.7,2.6c0.2,0.7,0.4,1.4,0.7,2.1c1.8,0.1,3.7,0,5.5-0.3c0.4-0.1,0.7,0.1,1,0.4
			c0.1,0.2,0.3,0.5,0.4,0.7c0.3,0.4,0.5,0.8,0.8,1.2c0.4,0.6,0.9,1.1,1.5,1.8c0.3,0.3,0.3,0.8,0.1,1.1c-0.9,1.5-1.6,3.1-2.3,4.9
			c0.6,0.5,1.2,0.9,1.7,1.3c1.6-1.1,3-2.2,4.3-3.5c0.3-0.3,0.8-0.4,1.1-0.2c0.5,0.3,1,0.5,1.6,0.7l0.5,0.2c0.7,0.2,1.4,0.4,2.1,0.5
			c0.4,0.1,0.7,0.4,0.8,0.8C22.9,44.4,23.3,46.2,23.7,47.9z M25,37c-1.3,0-2.5-0.2-3.7-0.6c-2.5-0.8-4.6-2.4-6-4.4
			c-1.5-2-2.3-4.4-2.3-7c0-2.7,0.8-5.1,2.3-7.1c1.4-2,3.5-3.5,6-4.4c2.4-0.8,5.1-0.8,7.4,0c2.5,0.8,4.6,2.4,6,4.4
			c1.5,2,2.3,4.4,2.3,7c0,2.7-0.8,5.1-2.3,7.1c-1.4,2-3.5,3.5-6,4.4C27.5,36.8,26.3,37,25,37z M25,14.9c-1.1,0-2.1,0.2-3.1,0.5
			c-2.1,0.7-3.9,2-5,3.7c-1.2,1.7-1.9,3.7-2,6c0,2.2,0.7,4.3,1.9,5.9c1.2,1.7,3,3,5.1,3.7c2,0.6,4.3,0.6,6.2,0c2.1-0.7,3.9-2,5-3.7
			c1.3-1.7,1.9-3.7,2-6c0-2.2-0.7-4.3-1.9-5.9c-1.2-1.7-3-3-5.1-3.7C27.1,15,26.1,14.9,25,14.9z"/>
	</g>
</g>
</svg>
